<svg width="24" height="24" viewBox="0 0 24 24" fill="none" xmlns="http://www.w3.org/2000/svg">
<g clip-path="url(#clip0_1314_7242)">
<path d="M21.1875 1.87891H20.0625V0.00390625H18.1875V1.87891H5.8125V0.00390625H3.9375V1.87891H2.8125C1.26169 1.87891 0 3.14059 0 4.69141V21.1914C0 22.7422 1.26169 24.0039 2.8125 24.0039H21.1875C22.7383 24.0039 24 22.7422 24 21.1914V4.69141C24 3.14059 22.7383 1.87891 21.1875 1.87891ZM22.125 21.1914C22.125 21.7083 21.7044 22.1289 21.1875 22.1289H2.8125C2.29556 22.1289 1.875 21.7083 1.875 21.1914V8.81641H22.125V21.1914ZM22.125 6.94141H1.875V4.69141C1.875 4.17447 2.29556 3.75391 2.8125 3.75391H3.9375V5.62891H5.8125V3.75391H18.1875V5.62891H20.0625V3.75391H21.1875C21.7044 3.75391 22.125 4.17447 22.125 4.69141V6.94141Z" fill="#171717"/>
<path d="M7 11H5V13H7V11Z" fill="#171717"/>
<path d="M7 17H5V19H7V17Z" fill="#171717"/>
<path d="M13 11H11V13H13V11Z" fill="#171717"/>
<path d="M13 17H11V19H13V17Z" fill="#171717"/>
<path d="M19 11H17V13H19V11Z" fill="#171717"/>
<path d="M19 17H17V19H19V17Z" fill="#171717"/>
</g>
<defs>
<clipPath id="clip0_1314_7242">
<rect width="24" height="24" fill="white"/>
</clipPath>
</defs>
</svg>
