<svg width="9.000000" height="12.011719" viewBox="0 0 9 12.0117" fill="none" xmlns="http://www.w3.org/2000/svg" xmlns:xlink="http://www.w3.org/1999/xlink">
	<desc>
			Created with Pixso.
	</desc>
	<defs/>
	<path id="Symbol" d="M0 4.5C0 6.32 0.6 6.84 4.03 11.76C4.24 12.09 4.73 12.09 4.94 11.76C8.36 6.84 9 6.32 9 4.5C9 2.01 6.98 0 4.5 0C1.99 0 0 2.01 0 4.5ZM6.37 4.5C6.37 5.55 5.53 6.37 4.5 6.37C3.44 6.37 2.62 5.55 2.62 4.5C2.62 3.46 3.44 2.62 4.5 2.62C5.53 2.62 6.37 3.46 6.37 4.5Z" fill="#171717" fill-opacity="1.000000" fill-rule="evenodd"/>
</svg>
