<svg width="9.375000" height="8.730469" viewBox="0 0 9.375 8.73047" fill="none" xmlns="http://www.w3.org/2000/svg" xmlns:xlink="http://www.w3.org/1999/xlink">
	<desc>
			Created with Pixso.
	</desc>
	<defs/>
	<path id="Symbol" d="M9.37 2.16L9.37 1.85C9.37 1.79 9.31 1.73 9.27 1.71L4.74 0L4.6 0L0.07 1.71C0.03 1.73 0 1.79 0 1.85L0 2.16C0 2.26 0.05 2.32 0.15 2.32L0.62 2.32L0.62 2.55C0.62 2.69 0.72 2.79 0.85 2.79L8.51 2.79C8.63 2.79 8.75 2.69 8.75 2.55L8.75 2.32L9.21 2.32C9.29 2.32 9.37 2.26 9.37 2.16ZM2.81 3.1L1.56 3.1L1.56 6.85L0.85 6.85C0.72 6.85 0.62 6.97 0.62 7.08L0.62 7.48L8.75 7.48L8.75 7.08C8.75 6.97 8.63 6.85 8.51 6.85L7.81 6.85L7.81 3.1L6.56 3.1L6.56 6.85L5.31 6.85L5.31 3.1L4.06 3.1L4.06 6.85L2.81 6.85L2.81 3.1ZM9.37 8.26C9.37 8 9.16 7.79 8.9 7.79L0.46 7.79C0.19 7.79 0 8 0 8.26L0 8.57C0 8.67 0.05 8.73 0.15 8.73L9.21 8.73C9.29 8.73 9.37 8.67 9.37 8.57L9.37 8.26Z" fill="#FFB056" fill-opacity="1.000000" fill-rule="evenodd"/>
</svg>
