<svg width="74" height="33" viewBox="0 0 74 33" fill="none" xmlns="http://www.w3.org/2000/svg">
<path d="M29.9851 11.8175C29.9851 11.9345 29.8831 12.0295 29.7573 12.0295C29.6315 12.0295 29.5312 11.9345 29.5312 11.8175C29.5312 11.7004 29.6332 11.6055 29.7573 11.6055C29.8831 11.6071 29.9851 11.702 29.9851 11.8175Z" fill="white"/>
<path d="M28.7344 11.8207C28.7344 12.3428 29.1916 12.7684 29.7526 12.7684C30.3135 12.7684 30.7708 12.3428 30.7708 11.8207C30.7708 11.2986 30.3135 10.873 29.7526 10.873C29.1899 10.8746 28.7344 11.2986 28.7344 11.8207ZM28.8075 11.8207C28.8075 11.3366 29.2307 10.9427 29.7509 10.9427C30.271 10.9427 30.6943 11.3366 30.6943 11.8207C30.6943 12.3048 30.271 12.6988 29.7509 12.6988C29.2307 12.7004 28.8075 12.3048 28.8075 11.8207Z" fill="white"/>
<path d="M29.7548 9.63867C28.4629 9.63867 27.4141 10.6152 27.4141 11.8181C27.4141 13.0226 28.4629 13.9976 29.7548 13.9976C31.0467 13.9976 32.0955 13.0226 32.0955 11.8181C32.0955 10.6152 31.0484 9.63867 29.7548 9.63867ZM29.7548 13.3423C28.8504 13.3423 28.1195 12.6602 28.1195 11.8197C28.1195 10.9777 28.8521 10.2971 29.7548 10.2971C30.6574 10.2971 31.39 10.9793 31.39 11.8197C31.3917 12.6602 30.6591 13.3423 29.7548 13.3423Z" fill="white"/>
<path d="M28.7026 11.4375L28.8692 11.1684C28.91 11.1019 28.8862 11.0164 28.8148 10.9785C28.8063 10.9737 28.7978 10.9705 28.791 10.969C28.6465 11.1098 28.5378 11.2824 28.4766 11.4755C28.4834 11.4802 28.4902 11.4865 28.4987 11.4897C28.5701 11.5261 28.6618 11.5039 28.7026 11.4375ZM29.7481 10.5859C29.6393 10.5859 29.5356 10.5986 29.4336 10.6223C29.4319 10.6303 29.4302 10.6382 29.4302 10.6477C29.4302 10.7236 29.4965 10.7869 29.5798 10.7869H29.9146C29.9962 10.7869 30.0642 10.7252 30.0642 10.6477C30.0642 10.6398 30.0625 10.6303 30.0608 10.6223C29.9605 10.5986 29.8568 10.5859 29.7481 10.5859ZM30.7935 11.4375C30.8343 11.5039 30.9261 11.5261 30.9975 11.4881C31.006 11.4834 31.0128 11.4786 31.0196 11.4723C30.9601 11.2792 30.8496 11.1083 30.7051 10.9674C30.6966 10.9706 30.6881 10.9737 30.6796 10.9769C30.6082 11.0149 30.5844 11.1003 30.6252 11.1668L30.7935 11.4375ZM30.7935 12.2019L30.6269 12.471C30.5861 12.5375 30.6099 12.623 30.6813 12.6609C30.6898 12.6657 30.6983 12.6689 30.7068 12.672C30.8513 12.5312 30.9601 12.3586 31.0213 12.1655C31.0145 12.1608 31.0077 12.1545 30.9992 12.1513C30.9261 12.1133 30.836 12.1355 30.7935 12.2019ZM28.7026 12.2019C28.6618 12.1355 28.5701 12.1133 28.4987 12.1513C28.4902 12.156 28.4834 12.1608 28.4766 12.1671C28.5361 12.3586 28.6465 12.5312 28.791 12.6736C28.7995 12.6704 28.808 12.6673 28.8148 12.6625C28.8862 12.6245 28.91 12.5391 28.8692 12.4726L28.7026 12.2019ZM29.9163 12.854H29.5815C29.4999 12.854 29.4319 12.9158 29.4319 12.9933C29.4319 13.0012 29.4336 13.0107 29.4353 13.0186C29.5356 13.0408 29.641 13.0551 29.7498 13.0551C29.8585 13.0551 29.9622 13.0424 30.0642 13.0186C30.0659 13.0107 30.0676 13.0028 30.0676 12.9933C30.0642 12.9158 29.9979 12.854 29.9163 12.854Z" fill="white"/>
<path d="M10.2675 11.9227C10.2046 12.0239 10.0669 12.0588 9.9581 12.0018C9.84931 11.9433 9.81191 11.8151 9.87311 11.7139C9.936 11.6126 10.0737 11.5778 10.1825 11.6347C10.2913 11.6917 10.3304 11.8214 10.2675 11.9227Z" fill="white"/>
<path d="M9.18055 11.3512C8.90178 11.8052 9.07346 12.3843 9.56132 12.6437C10.0492 12.9032 10.6713 12.7434 10.9501 12.2893C11.2289 11.8353 11.0572 11.2562 10.5693 10.9968C10.0815 10.7389 9.45763 10.8971 9.18055 11.3512ZM9.24515 11.386C9.50352 10.9651 10.0798 10.818 10.5319 11.0585C10.9841 11.2989 11.1422 11.8353 10.8838 12.2561C10.6254 12.677 10.0492 12.8241 9.59702 12.5836C9.14485 12.3431 8.98677 11.8052 9.24515 11.386Z" fill="white"/>
<path d="M11.2267 9.92525C10.1031 9.32855 8.67349 9.69416 8.03434 10.7388C7.39349 11.785 7.78616 13.1161 8.90807 13.7112C10.0317 14.3079 11.4613 13.9439 12.1004 12.8977C12.7412 11.8531 12.3503 10.522 11.2267 9.92525ZM9.25654 13.143C8.4712 12.7267 8.19753 11.7961 8.64629 11.0648C9.09335 10.3336 10.0929 10.0788 10.8782 10.4966C11.6635 10.9129 11.9372 11.8436 11.4885 12.5748C11.0414 13.3045 10.0419 13.5593 9.25654 13.143Z" fill="white"/>
<path d="M9.36117 11.0046L9.65015 10.848C9.72154 10.81 9.74534 10.7246 9.70454 10.6581C9.69944 10.6502 9.69435 10.6439 9.68925 10.6376C9.48866 10.6929 9.30168 10.7926 9.14699 10.9318C9.15039 10.9397 9.15379 10.9476 9.15889 10.9556C9.19969 11.0204 9.28978 11.0442 9.36117 11.0046ZM10.7228 10.7467C10.6293 10.6961 10.5307 10.6597 10.4304 10.6328C10.4253 10.6391 10.4185 10.6455 10.4151 10.6534C10.3743 10.7198 10.3998 10.8053 10.4712 10.8432L10.7619 10.9967C10.8332 11.0347 10.925 11.0109 10.9658 10.9445C10.9709 10.9366 10.9743 10.9287 10.976 10.9223C10.9012 10.8559 10.818 10.7974 10.7228 10.7467ZM11.1783 11.9681C11.1783 12.0456 11.2463 12.1073 11.3279 12.1057C11.3381 12.1057 11.3466 12.1042 11.3551 12.1026C11.4044 11.908 11.4027 11.7071 11.3517 11.5188C11.3432 11.5172 11.3347 11.5156 11.3245 11.5172C11.2429 11.5172 11.1749 11.5805 11.1766 11.6564L11.1783 11.9681ZM10.7721 12.6326L10.4831 12.7892C10.4117 12.8272 10.3879 12.9126 10.4287 12.9791C10.4338 12.987 10.4389 12.9933 10.444 12.9996C10.6446 12.9443 10.8316 12.8446 10.9862 12.7054C10.9828 12.6975 10.9794 12.6895 10.9743 12.6816C10.9335 12.6168 10.8434 12.593 10.7721 12.6326ZM8.95491 11.6691C8.95491 11.5916 8.88691 11.5299 8.80532 11.5314C8.79682 11.5314 8.78662 11.533 8.77812 11.5346C8.72883 11.7292 8.73053 11.9301 8.78152 12.1184C8.79002 12.12 8.79852 12.1216 8.80872 12.12C8.89201 12.12 8.95831 12.0567 8.95661 11.9808L8.95491 11.6691ZM9.66205 12.794L9.37137 12.6405C9.29998 12.6025 9.20819 12.6263 9.16739 12.6927C9.16229 12.7006 9.15889 12.7085 9.15719 12.7164C9.23198 12.7829 9.31698 12.843 9.41047 12.8921C9.50396 12.9427 9.60255 12.9791 9.70284 13.006C9.70794 12.9996 9.71474 12.9933 9.71814 12.9854C9.75894 12.9158 9.73344 12.8319 9.66205 12.794Z" fill="white"/>
<path d="M0.670089 6.85347C0.670089 6.87562 0.65139 6.89461 0.625892 6.89461H0.427009C0.403211 6.89461 0.382812 6.87721 0.382812 6.85347V6.07825C0.382812 6.0561 0.403211 6.03711 0.427009 6.03711H0.625892C0.64969 6.03711 0.670089 6.0561 0.670089 6.07825V6.85347Z" fill="white"/>
<path d="M0.679343 7.3197C0.679343 7.34185 0.660645 7.36084 0.635147 7.36084H0.341071C0.317273 7.36084 0.296875 7.34343 0.296875 7.3197V7.00012C0.296875 6.97797 0.317273 6.95898 0.341071 6.95898H0.636847C0.660645 6.95898 0.681043 6.97797 0.681043 7.00012V7.3197H0.679343Z" fill="white"/>
<path d="M0.654103 8.44344C0.654103 8.46559 0.633705 8.483 0.609907 8.483H0.434821C0.411023 8.483 0.390625 8.46559 0.390625 8.44344V7.46729C0.390625 7.44514 0.411023 7.42773 0.434821 7.42773H0.609907C0.633705 7.42773 0.654103 7.44514 0.654103 7.46729V8.44344Z" fill="white"/>
<path d="M36.2083 9.75978C36.159 9.66798 35.9227 9.51287 35.8734 9.45747C35.8938 9.40207 35.8938 9.28337 35.8836 9.21847C35.9618 9.17257 35.972 9.01746 35.9125 8.97947C35.972 8.93357 35.9516 8.82436 35.8836 8.76897C35.9431 8.64076 35.8241 8.53946 35.785 8.52997C35.785 8.44766 35.7357 8.36536 35.6575 8.36536C35.6473 8.19126 35.5793 7.96175 35.3821 7.71484C35.1849 7.46793 34.131 6.76993 33.7469 6.54043C33.3627 6.31093 32.6437 5.76962 32.5944 5.70631C32.5349 5.71581 32.3972 5.7253 32.2799 5.73322C32.1711 5.67782 31.7291 5.33911 31.6305 5.2663C31.5744 5.0827 31.4725 4.88169 31.2855 4.6791C30.9591 4.32614 30.7143 4.3483 30.6463 4.37679C30.3709 4.11088 27.8399 2.01055 27.5832 1.80954C27.131 1.19543 25.4074 0.453107 24.9246 0.324903C24.4418 0.196698 23.1618 0.0320914 23.0735 0.0400052C22.9851 0.0495018 22.9069 0.177706 22.8168 0.177706C22.7284 0.177706 22.64 0.0495014 22.5703 0.0495014C22.4037 0.0495014 17.4894 0.030509 17.1749 0.030509C16.7619 0.030509 14.428 0.00993263 14.3498 0.000436023C14.2716 -0.00906058 14.2512 0.139719 14.173 0.139719C14.0948 0.139719 14.0846 0.0115153 13.986 0.0115153C13.7786 0.0115153 10.0967 0.00518428 9.2587 0.0115153C8.89833 0.0146809 6.35875 0.0415883 6.29925 0.0415883C6.23976 0.0415883 6.20406 0.141302 6.14456 0.141302C6.08507 0.141302 6.08507 0.063747 6.00178 0.063747C5.91848 0.063747 4.40051 0.0748263 3.81576 0.063747C3.23101 0.0526676 1.45125 0.0415877 1.27277 0.185619C1.09428 0.329651 0.866502 1.39802 0.854603 1.54205C0.830805 1.66392 0.555428 3.76584 0.543529 4.02225C0.53163 4.27866 0.484034 5.74588 0.460236 5.98013C0.519731 5.98013 0.686317 5.94689 0.735613 6.03553C0.783209 6.12416 0.77131 8.47141 0.723714 8.51572C0.676118 8.56004 0.569027 8.56004 0.473835 8.54896C0.473835 8.6376 0.473835 9.29445 0.473835 9.4274C0.473835 9.56035 0.402441 9.50495 0.354845 9.56035C0.307249 9.61575 0.331047 9.92755 0.342946 10.0716C0.353145 10.1982 0.283451 10.2821 0.235855 10.3723C0.188259 10.4609 0.247754 11.0513 0.319148 11.1178C0.390542 11.1843 0.832505 11.14 1.13168 11.14C1.43086 11.14 1.57364 11.1178 1.65694 11.0402C2.15839 11.0402 3.79536 11.341 4.39201 11.4185C4.98866 11.4961 6.97239 11.5515 7.46195 11.5404C7.55715 10.7506 8.19629 9.87215 8.76405 9.60625C9.38449 9.31502 10.316 9.27703 11.0929 9.54294C11.8697 9.81043 12.2046 10.4182 12.4187 10.8186C12.6057 11.1669 12.8335 11.7731 12.9678 12.183C13.4489 12.183 20.0001 12.183 21.0404 12.1877C21.4637 12.1893 24.0135 12.1877 24.7138 12.1782C25.4125 12.1687 26.5939 12.1877 26.6636 12.3159C26.7299 11.7873 27.2993 10.6176 27.6971 10.1064C27.9894 9.73129 28.6218 9.08868 29.7454 9.06178C31.3416 9.02221 32.0606 10.0842 32.3462 10.6841C32.5315 11.0735 32.4839 11.6749 32.4244 11.9582C32.5519 11.8569 33.055 11.8664 33.2709 11.83C33.4868 11.7936 33.6347 11.6654 33.8625 11.591C34.012 11.542 34.6172 11.4866 35.1102 11.4723C35.2648 11.2412 35.4093 10.8725 35.5521 10.749C35.6949 10.6271 35.887 10.7822 36.0094 10.6176C36.1233 10.4578 36.2576 9.85158 36.2083 9.75978ZM5.55811 4.97507C5.55811 5.19983 5.36263 5.38026 5.12295 5.38026H1.97991C1.73853 5.38026 1.54475 5.19824 1.54475 4.97507V2.24005C1.54475 2.0153 1.74023 1.83486 1.97991 1.83486H5.12125C5.36263 1.83486 5.55641 2.01688 5.55641 2.24005V4.97507H5.55811ZM13.4863 5.01939C13.4863 5.24414 13.2908 5.42458 13.0511 5.42458H6.55423C6.31285 5.42458 6.11907 5.24256 6.11907 5.01939V2.23847C6.11907 2.01372 6.31455 1.83328 6.55423 1.83328H13.0511C13.2925 1.83328 13.4863 2.0153 13.4863 2.23847V5.01939ZM21.1441 9.29286C21.1441 9.42423 21.0285 9.53186 20.8874 9.53186H19.9372C19.7961 9.53186 19.6805 9.42423 19.6805 9.29286V8.7753C19.6805 8.64393 19.7961 8.5363 19.9372 8.5363H20.8874C21.0285 8.5363 21.1441 8.64393 21.1441 8.7753V9.29286ZM21.8224 5.01939C21.8224 5.24414 21.6269 5.42458 21.3872 5.42458H14.8903C14.649 5.42458 14.4552 5.24256 14.4552 5.01939V2.23847C14.4552 2.01372 14.6507 1.83328 14.8903 1.83328H21.3872C21.6286 1.83328 21.8224 2.0153 21.8224 2.23847V5.01939ZM22.9817 6.59583H22.8457C22.7437 6.59583 22.6621 6.51352 22.6621 6.41381V5.96747C22.6621 5.86617 22.7437 5.78545 22.8457 5.78545H22.9817V6.59583ZM23.6446 7.37138C23.563 7.37138 23.495 7.30965 23.495 7.2321C23.495 7.15613 23.5613 7.09282 23.6446 7.09282C23.7279 7.09282 23.7942 7.15454 23.7942 7.2321C23.7925 7.30965 23.7262 7.37138 23.6446 7.37138ZM28.4025 4.56989C28.2954 4.69176 28.1764 5.15867 28.139 5.89308C27.6614 5.90416 26.5157 5.8266 26.0142 5.78229C25.5128 5.73797 23.9846 5.66041 23.8163 5.43724C23.6497 5.21407 23.5817 4.06973 23.5579 3.71361C23.5341 3.35749 23.4219 2.10077 23.5664 1.98997C23.7347 1.8586 24.5455 1.90134 25.1779 1.9789C25.8102 2.05645 26.1451 2.11185 26.3848 2.22422C26.6228 2.33502 27.7345 3.16914 28.0574 3.46986C28.3804 3.77059 28.9176 4.4037 29.0604 4.58255C28.9295 4.51449 28.5113 4.44801 28.4025 4.56989ZM31.9994 7.60722H31.7733C31.707 7.60722 31.6543 7.55815 31.6543 7.49642C31.6543 7.43469 31.707 7.38563 31.7733 7.38563H31.9994C32.0657 7.38563 32.1184 7.43469 32.1184 7.49642C32.1201 7.55815 32.0657 7.60722 31.9994 7.60722ZM35.258 9.59517C35.1391 9.60625 34.8518 9.61733 34.7209 9.55085C34.59 9.48438 34.5424 9.28336 34.4829 9.08394C34.4234 8.88292 34.4132 8.674 34.5781 8.63918C35.0439 8.53946 35.1272 8.86235 35.1985 9.01746C35.2699 9.17257 35.2937 9.4733 35.258 9.59517ZM20.8891 8.60911H19.9389C19.8403 8.60911 19.7587 8.6835 19.7587 8.77688V9.29444C19.7587 9.38624 19.8386 9.46222 19.9389 9.46222H20.8891C20.9877 9.46222 21.0693 9.38783 21.0693 9.29444V8.77688C21.0676 8.6835 20.9877 8.60911 20.8891 8.60911Z" fill="white"/>
<path d="M73.7734 9.21196C73.7734 8.95739 73.4591 8.82998 73.4591 8.82998C73.4591 8.82998 73.5191 8.08004 73.3664 7.59882C73.2139 7.11761 73.0792 6.59988 72.4298 6.2433C71.7805 5.88672 69.6564 5.09868 68.8638 4.61309C68.0712 4.12751 64.6445 1.52165 63.6179 1.31458C62.5913 1.10752 41.8713 0.981027 41.4733 1.00233C41.0757 1.02376 40.9547 1.25319 40.841 1.74737C40.7273 2.24182 40.5116 3.159 40.5116 3.159L40.3107 3.14815L40.2919 3.62473L40.4244 3.63188C40.4244 3.63188 39.9361 5.00566 40.0029 7.89732C39.9154 7.90287 39.9043 7.9513 39.9043 8.04431C39.9043 8.13759 39.8463 8.42034 39.9482 8.43741C40.0502 8.45474 40.1232 8.44799 40.1232 8.44799L40.2052 10.0877C40.2052 10.0877 39.7669 10.0781 39.7735 10.3795C39.7804 10.6809 39.7601 10.9106 40.1403 10.9948C40.5202 11.0791 41.6301 11.2069 43.0393 11.188C43.2138 12.0171 43.1838 11.97 43.3334 11.97C43.4825 11.97 43.3432 11.353 43.3432 11.353L43.6221 11.3576C43.6221 11.3576 43.9161 12.8923 45.557 12.9925C47.2992 13.0985 47.7811 12.0496 47.7811 12.0496C47.7811 12.0496 48.436 11.9102 48.7523 11.3865L65.0205 11.5081C65.0205 11.5081 65.3517 11.9362 65.9259 12.0512C66.3176 12.5879 66.9325 13.0608 68.1756 12.9841C69.4189 12.9075 69.8037 12.1151 70.0065 11.54C70.4792 11.4901 70.5061 11.459 70.5061 11.459C70.5061 11.459 70.509 11.6118 70.551 11.6032C70.5927 11.5949 72.2502 11.4647 72.379 11.4082C72.5076 11.3514 73.4503 10.8988 73.5128 10.842C73.5758 10.7853 73.462 10.678 73.462 10.678C73.462 10.678 73.6895 10.4346 73.6744 10.2646C73.6597 10.0947 73.6327 9.8231 73.6895 9.74094C73.7462 9.65904 73.7734 9.46679 73.7734 9.21196ZM41.2703 2.92811C41.1808 3.22171 40.8914 5.19857 40.8494 5.94533C40.8071 6.69223 40.7808 7.23484 40.7808 7.23484C40.7808 7.23484 40.1807 8.26541 40.1334 7.8772C40.1334 7.8772 40.1283 5.38261 40.2911 5.13374C40.4543 4.88473 40.6281 3.7196 40.7071 3.1672C40.7862 2.61441 40.8176 2.35058 40.9651 2.42533C41.1127 2.49996 41.3598 2.63412 41.2703 2.92811ZM63.6502 2.12075C63.6807 2.0501 64.0003 2.20451 64.0003 2.20451V2.41686C63.8203 2.31697 63.6194 2.19141 63.6502 2.12075ZM63.4628 2.78178L63.6846 4.34027L63.0215 5.13929L62.7075 2.4559L63.4628 2.78178ZM62.1742 2.28879C62.1742 2.28879 62.3546 2.44108 62.5374 2.3957C62.5826 2.88961 62.8288 5.10476 62.8288 5.10476C62.8288 5.10476 62.1801 5.19275 61.6411 4.82082C61.1022 4.4489 60.7089 4.30124 60.6367 3.75863C60.5646 3.21642 60.4535 2.22488 60.4535 2.22488L62.1742 2.28879ZM59.8744 5.64115C59.88 5.56679 59.9868 5.55065 60.3553 5.55594C60.7233 5.5615 61.4432 5.59061 61.4517 5.75031C61.46 5.90961 61.1396 5.86476 61.0862 5.80336C61.0328 5.74224 60.3749 5.77148 60.3749 5.77148C60.3749 5.77148 60.39 5.80866 60.2175 5.7982C59.9292 5.78008 59.8688 5.71564 59.8744 5.64115ZM45.7895 12.343C45.0271 12.343 44.4092 11.7585 44.4092 11.0375C44.4092 10.3164 45.0271 9.73154 45.7895 9.73154C46.5519 9.73154 47.1698 10.3162 47.1698 11.0375C47.1698 11.7587 46.552 12.343 45.7895 12.343ZM51.101 6.17754L43.335 5.8502L43.3702 5.44586L51.101 5.78193V6.17754ZM51.0356 4.56136C46.9432 4.36514 42.791 4.16231 42.791 4.16231C42.5143 4.07525 41.9952 3.55461 41.9784 3.29607C41.9616 3.03754 42.0639 1.58185 42.8133 1.58582C43.1952 1.58767 47.2359 1.68532 51.1763 1.7L51.0356 4.56136ZM51.3401 1.70053C55.0723 1.71482 58.6466 1.93499 58.8193 1.94729C59.1773 1.9727 59.1658 2.11811 59.171 2.41263C59.1763 2.70742 59.192 4.60066 59.171 4.69883C59.1503 4.79714 59.1503 4.91 58.9324 4.92455C58.8272 4.9317 55.0647 4.7544 51.1994 4.5689L51.3401 1.70053ZM57.672 5.62792C57.3835 5.60992 57.3232 5.54549 57.3288 5.471C57.3347 5.39664 57.4416 5.3805 57.8098 5.38606C58.1778 5.39135 58.8977 5.42046 58.9062 5.58015C58.9145 5.73946 58.5941 5.6946 58.5407 5.63348C58.4872 5.57208 57.8293 5.60119 57.8293 5.60119C57.8293 5.60119 57.8445 5.63877 57.672 5.62792ZM64.2051 10.1609C64.0641 10.1814 53.0264 9.7584 52.8527 9.72771C52.6787 9.69675 51.964 8.95885 52.4093 8.95885C52.8547 8.95885 63.2276 9.37986 63.6624 9.55478C64.0967 9.72929 64.3464 10.1401 64.2051 10.1609ZM64.69 3.87956C64.5624 3.88419 64.3608 4.83008 64.3608 4.83008C64.3608 4.83008 64.3608 4.83008 64.2691 4.75784C64.2435 4.60595 64.1183 4.61309 64.1183 4.61309L63.9016 4.41992C63.9016 4.41992 64.3454 3.92045 64.1949 3.83365C64.0444 3.74685 63.8557 4.08941 63.8557 4.08941C63.8557 4.08941 63.7891 3.53476 63.6846 2.92335C64.6361 3.38009 65.0778 3.85786 65.0649 3.87453C65.0522 3.8916 64.8174 3.87467 64.69 3.87956ZM65.8067 3.70041C65.4121 3.32095 64.1229 2.48104 64.1229 2.48104C64.1432 2.49069 64.4189 2.55513 64.6876 2.51014C65.0275 2.71258 66.1298 3.38194 66.1738 3.49758C65.936 3.45577 65.7727 3.64894 65.8067 3.70041ZM67.9617 12.3418C67.1993 12.3418 66.5814 11.7571 66.5814 11.0363C66.5814 10.3152 67.1993 9.73035 67.9617 9.73035C68.7241 9.73035 69.3419 10.315 69.3419 11.0363C69.3419 11.757 68.7241 12.3418 67.9617 12.3418ZM73.1771 7.85233C72.9775 7.84704 71.6775 7.61642 71.5538 7.51653C71.4303 7.41703 70.6393 6.30615 69.8723 5.72821C69.8723 5.72821 72.0737 6.0795 72.5559 6.56746C73.0385 7.05529 73.3767 7.85762 73.1771 7.85233Z" fill="white"/>
<path d="M45.8215 9.84375C45.1531 9.84375 44.6094 10.3648 44.6094 11.0052C44.6094 11.6456 45.1531 12.1666 45.8215 12.1666C46.49 12.1666 47.034 11.6456 47.034 11.0052C47.0339 10.3648 46.49 9.84375 45.8215 9.84375ZM45.8215 12.0425C45.2254 12.0425 44.7404 11.5772 44.7404 11.0052C44.7404 10.4332 45.2254 9.96773 45.8215 9.96773C46.4177 9.96773 46.9028 10.4331 46.9028 11.0052C46.9028 11.5773 46.4177 12.0425 45.8215 12.0425Z" fill="white"/>
<path d="M67.9547 9.875C67.2862 9.875 66.7422 10.396 66.7422 11.0364C66.7422 11.6768 67.2861 12.1979 67.9547 12.1979C68.6234 12.1979 69.1673 11.6768 69.1673 11.0364C69.1673 10.396 68.6233 9.875 67.9547 9.875ZM67.9547 12.0737C67.3585 12.0737 66.8734 11.6084 66.8734 11.0364C66.8734 10.7053 67.0361 10.4102 67.2887 10.2201C67.2735 10.2391 67.2677 10.2572 67.2759 10.2681C67.2891 10.2857 67.334 10.277 67.3762 10.2486C67.4183 10.2202 67.4416 10.1829 67.4283 10.1653C67.4201 10.1543 67.3995 10.1536 67.375 10.1615C67.5428 10.0588 67.7415 9.99911 67.9547 9.99911C68.5509 9.99911 69.0361 10.4644 69.0361 11.0366C69.0361 11.6087 68.5509 12.0737 67.9547 12.0737Z" fill="white"/>
<path d="M45.8197 10.3262C45.4232 10.3262 45.1016 10.6304 45.1016 11.0057C45.1016 11.3808 45.4232 11.685 45.8197 11.685C46.2167 11.685 46.5382 11.3808 46.5382 11.0057C46.5382 10.6304 46.2166 10.3262 45.8197 10.3262ZM45.8197 11.3335C45.6378 11.3335 45.4896 11.1933 45.4896 11.0212C45.4896 10.8491 45.6376 10.7089 45.8197 10.7089C46.0019 10.7089 46.1502 10.8491 46.1502 11.0212C46.1502 11.1933 46.0019 11.3335 45.8197 11.3335Z" fill="white"/>
<path d="M67.9293 10.3613C67.5455 10.3613 67.2344 10.6556 67.2344 11.0183C67.2344 11.3813 67.5455 11.6756 67.9293 11.6756C68.3132 11.6756 68.6243 11.3813 68.6243 11.0183C68.6242 10.6556 68.3132 10.3613 67.9293 10.3613ZM67.9208 11.4205C67.697 11.4205 67.5157 11.2487 67.5157 11.0369C67.5157 10.8255 67.697 10.6537 67.9208 10.6537C68.1446 10.6537 68.3263 10.8255 68.3263 11.0369C68.3262 11.2487 68.1446 11.4205 67.9208 11.4205Z" fill="white"/>
<path d="M45.0492 10.3707C45.0303 10.358 44.9904 10.3805 44.9602 10.4209C44.9298 10.4612 44.9206 10.5042 44.9395 10.5169C44.9584 10.5296 44.9982 10.5071 45.0285 10.4668C45.0588 10.4263 45.068 10.3833 45.0492 10.3707Z" fill="white"/>
<path d="M45.238 10.2283C45.2807 10.1996 45.3043 10.1619 45.2909 10.144C45.2774 10.1261 45.232 10.135 45.1895 10.1637C45.1468 10.1924 45.1231 10.2301 45.1366 10.248C45.15 10.2659 45.1955 10.257 45.238 10.2283Z" fill="white"/>
<path d="M45.5642 10.1011C45.6146 10.0874 45.6503 10.0594 45.6438 10.0383C45.6375 10.0173 45.5915 10.0112 45.5413 10.0249C45.4909 10.0385 45.4553 10.0665 45.4617 10.0876C45.468 10.1086 45.514 10.1147 45.5642 10.1011Z" fill="white"/>
<path d="M45.8901 10.0618C45.9424 10.0637 45.9855 10.0474 45.9863 10.0254C45.9871 10.0036 45.9454 9.98442 45.8931 9.98257C45.8408 9.98071 45.7977 9.99699 45.7969 10.019C45.796 10.0408 45.8377 10.06 45.8901 10.0618Z" fill="white"/>
<path d="M46.2311 10.1485C46.2799 10.1663 46.3264 10.164 46.3346 10.1435C46.3429 10.123 46.31 10.0922 46.261 10.0745C46.2122 10.0567 46.1658 10.059 46.1575 10.0795C46.1493 10.1 46.1821 10.1308 46.2311 10.1485Z" fill="white"/>
<path d="M46.476 10.2434C46.4588 10.2581 46.4733 10.2998 46.5084 10.3364C46.5435 10.3732 46.5859 10.3911 46.603 10.3764C46.6202 10.3617 46.6057 10.32 46.5705 10.2834C46.5356 10.2466 46.4932 10.2287 46.476 10.2434Z" fill="white"/>
<path d="M46.7753 10.6676C46.7968 10.6594 46.7983 10.6156 46.7789 10.5697C46.7594 10.5238 46.7262 10.4931 46.7047 10.5013C46.6832 10.5095 46.6817 10.5533 46.7011 10.5992C46.7206 10.6451 46.7539 10.6757 46.7753 10.6676Z" fill="white"/>
<path d="M46.8514 11.0052C46.8745 11.0042 46.8913 10.9633 46.8886 10.9138C46.8861 10.8643 46.8653 10.8251 46.8422 10.8262C46.8191 10.8273 46.8023 10.8681 46.805 10.9176C46.8075 10.967 46.8283 11.0063 46.8514 11.0052Z" fill="white"/>
<path d="M46.778 11.3393C46.7999 11.346 46.831 11.3135 46.8472 11.2664C46.8634 11.2193 46.8588 11.1757 46.8368 11.1689C46.8149 11.1621 46.7838 11.1947 46.7676 11.2418C46.7512 11.2889 46.7559 11.3325 46.778 11.3393Z" fill="white"/>
<path d="M46.5949 11.6347C46.6133 11.648 46.6539 11.6269 46.6857 11.5875C46.7174 11.5482 46.7282 11.5055 46.7097 11.4922C46.6913 11.479 46.6507 11.5 46.6189 11.5395C46.5873 11.5788 46.5765 11.6215 46.5949 11.6347Z" fill="white"/>
<path d="M46.3759 11.7776C46.337 11.8107 46.318 11.8508 46.3335 11.8671C46.3491 11.8834 46.3931 11.8697 46.432 11.8365C46.4709 11.8034 46.4899 11.7634 46.4744 11.7471C46.4589 11.7308 46.4148 11.7446 46.3759 11.7776Z" fill="white"/>
<path d="M45.7134 11.9435C45.6611 11.9417 45.618 11.9579 45.6172 11.9798C45.6164 12.0016 45.658 12.0209 45.7104 12.0228C45.7627 12.0246 45.8058 12.0083 45.8066 11.9865C45.8074 11.9647 45.7658 11.9454 45.7134 11.9435Z" fill="white"/>
<path d="M45.3858 11.8626C45.3367 11.8457 45.2904 11.8485 45.2824 11.8691C45.2745 11.8897 45.3079 11.92 45.357 11.9371C45.4061 11.9541 45.4524 11.9513 45.4604 11.9306C45.4683 11.91 45.435 11.8796 45.3858 11.8626Z" fill="white"/>
<path d="M45.1558 11.7646C45.1722 11.7491 45.1555 11.7082 45.1185 11.6732C45.0815 11.6382 45.0383 11.6224 45.0219 11.6379C45.0055 11.6534 45.0222 11.6944 45.0592 11.7294C45.0961 11.7643 45.1394 11.7801 45.1558 11.7646Z" fill="white"/>
<path d="M44.8404 11.3385C44.8204 11.3494 44.8253 11.393 44.8515 11.4358C44.8776 11.4787 44.9151 11.5046 44.9351 11.4937C44.9551 11.4827 44.9502 11.4391 44.9241 11.3963C44.8979 11.3534 44.8604 11.3275 44.8404 11.3385Z" fill="white"/>
<path d="M44.8353 11.0985C44.8274 11.0496 44.8027 11.0125 44.7797 11.0158C44.7568 11.0191 44.7446 11.0613 44.7523 11.1103C44.7601 11.1593 44.7849 11.1963 44.8078 11.193C44.8308 11.1898 44.8431 11.1475 44.8353 11.0985Z" fill="white"/>
<path d="M44.8078 10.8559C44.8305 10.8601 44.8572 10.8242 44.8674 10.7757C44.8776 10.7271 44.8675 10.6844 44.8447 10.68C44.8221 10.6758 44.7954 10.7116 44.7852 10.7602C44.7751 10.8088 44.7852 10.8516 44.8078 10.8559Z" fill="white"/>
<path d="M46.0827 11.9196C46.0319 11.9312 45.9951 11.9581 46.0005 11.9792C46.006 12.0005 46.0517 12.0082 46.1025 11.9966C46.1533 11.9849 46.1901 11.9581 46.1846 11.9369C46.1792 11.9156 46.1336 11.9078 46.0827 11.9196Z" fill="white"/>
<path d="M67.1963 10.3863C67.1776 10.3738 67.1382 10.396 67.1083 10.4358C67.0783 10.4756 67.0691 10.5181 67.0878 10.5307C67.1064 10.5432 67.1459 10.521 67.1758 10.4812C67.2058 10.4414 67.215 10.3989 67.1963 10.3863Z" fill="white"/>
<path d="M67.6959 10.1196C67.7457 10.1062 67.7808 10.0784 67.7746 10.0577C67.7683 10.0369 67.723 10.0308 67.6732 10.0443C67.6234 10.0577 67.5883 10.0854 67.5944 10.1062C67.6006 10.127 67.6461 10.1331 67.6959 10.1196Z" fill="white"/>
<path d="M68.126 10.0474C68.1269 10.0258 68.0857 10.0068 68.034 10.005C67.9824 10.0033 67.9398 10.0193 67.939 10.0409C67.9382 10.0626 67.9794 10.0815 68.031 10.0833C68.0827 10.0851 68.1252 10.069 68.126 10.0474Z" fill="white"/>
<path d="M68.3629 10.167C68.4112 10.1844 68.4571 10.1822 68.4652 10.1621C68.4733 10.1418 68.4409 10.1113 68.3926 10.0938C68.3443 10.0763 68.2985 10.0786 68.2903 10.0987C68.2821 10.1189 68.3145 10.1495 68.3629 10.167Z" fill="white"/>
<path d="M68.6009 10.2609C68.5839 10.2754 68.5982 10.3166 68.6329 10.3529C68.6676 10.3891 68.7094 10.4068 68.7263 10.3923C68.7433 10.3777 68.729 10.3366 68.6943 10.3003C68.6598 10.2641 68.6178 10.2465 68.6009 10.2609Z" fill="white"/>
<path d="M68.8993 10.6814C68.9206 10.6733 68.9221 10.6299 68.9028 10.5845C68.8835 10.5392 68.8506 10.5089 68.8295 10.5169C68.8083 10.525 68.8067 10.5684 68.826 10.6138C68.8453 10.6592 68.8781 10.6895 68.8993 10.6814Z" fill="white"/>
<path d="M68.9836 11.0148C69.0064 11.0138 69.0229 10.9733 69.0204 10.9244C69.0179 10.8756 68.9973 10.8369 68.9745 10.8379C68.9517 10.839 68.9352 10.8795 68.9378 10.9283C68.9403 10.9771 68.9608 11.0159 68.9836 11.0148Z" fill="white"/>
<path d="M68.9026 11.3469C68.9243 11.3537 68.9551 11.3214 68.9712 11.2749C68.9873 11.2285 68.9826 11.1854 68.961 11.1786C68.9393 11.1719 68.9085 11.2042 68.8924 11.2506C68.8763 11.297 68.8809 11.3402 68.9026 11.3469Z" fill="white"/>
<path d="M68.7276 11.637C68.7458 11.6501 68.786 11.6292 68.8173 11.5903C68.8486 11.5514 68.8593 11.5092 68.8411 11.4961C68.8229 11.483 68.7827 11.5039 68.7514 11.5428C68.7201 11.5817 68.7094 11.6238 68.7276 11.637Z" fill="white"/>
<path d="M68.5081 11.7771C68.4697 11.8098 68.4509 11.8494 68.4663 11.8655C68.4817 11.8817 68.5252 11.8682 68.5637 11.8354C68.6021 11.8027 68.6209 11.7631 68.6055 11.747C68.5901 11.731 68.5465 11.7445 68.5081 11.7771Z" fill="white"/>
<path d="M67.8608 11.9396C67.8091 11.9377 67.7665 11.9538 67.7656 11.9755C67.7648 11.997 67.8059 12.0161 67.8577 12.0179C67.9093 12.0198 67.952 12.0038 67.9528 11.9821C67.9536 11.9604 67.9124 11.9415 67.8608 11.9396Z" fill="white"/>
<path d="M67.5408 11.8625C67.4922 11.8457 67.4465 11.8486 67.4387 11.8688C67.4308 11.8892 67.4638 11.9193 67.5124 11.9361C67.5609 11.9529 67.6067 11.95 67.6145 11.9297C67.6223 11.9093 67.5893 11.8793 67.5408 11.8625Z" fill="white"/>
<path d="M67.3023 11.7655C67.3184 11.7502 67.3019 11.7097 67.2654 11.6752C67.2288 11.6406 67.1861 11.625 67.1699 11.6403C67.1537 11.6556 67.1703 11.696 67.2068 11.7306C67.2433 11.7651 67.2861 11.7807 67.3023 11.7655Z" fill="white"/>
<path d="M66.9966 11.3443C66.9767 11.3551 66.9816 11.3983 67.0075 11.4406C67.0334 11.4829 67.0703 11.5085 67.0902 11.4978C67.11 11.4869 67.1051 11.4438 67.0793 11.4014C67.0534 11.3591 67.0164 11.3334 66.9966 11.3443Z" fill="white"/>
<path d="M66.9982 11.1074C66.9905 11.0589 66.9659 11.0224 66.9434 11.0256C66.9207 11.0288 66.9087 11.0706 66.9164 11.119C66.9241 11.1674 66.9487 11.2039 66.9712 11.2008C66.9937 11.1976 67.0059 11.1558 66.9982 11.1074Z" fill="white"/>
<path d="M66.956 10.8655C66.9784 10.8697 67.0048 10.8342 67.0149 10.7862C67.025 10.7382 67.015 10.696 66.9925 10.6917C66.9701 10.6875 66.9437 10.723 66.9336 10.771C66.9235 10.819 66.9335 10.8612 66.956 10.8655Z" fill="white"/>
<path d="M68.2145 11.9155C68.1643 11.927 68.1279 11.9535 68.1334 11.9745C68.1388 11.9956 68.1839 12.0032 68.2341 11.9916C68.2843 11.9801 68.3207 11.9536 68.3152 11.9326C68.3099 11.9117 68.2647 11.904 68.2145 11.9155Z" fill="white"/>
<path d="M48.8552 29.8575C48.8552 29.7215 48.968 29.6113 49.1073 29.6113C49.2466 29.6113 49.3594 29.7215 49.3594 29.8575C49.3594 29.9935 49.2466 30.1037 49.1073 30.1037C48.968 30.1037 48.8552 29.9935 48.8552 29.8575Z" fill="white"/>
<path d="M49.5936 29.3613C49.6497 29.3613 49.6953 29.4045 49.6953 29.4579C49.6953 29.5113 49.6497 29.5545 49.5936 29.5545C49.5375 29.5545 49.4919 29.5113 49.4919 29.4579C49.4919 29.4045 49.5375 29.3613 49.5936 29.3613Z" fill="white"/>
<path d="M49.2264 29.3611C49.1703 29.3611 49.1247 29.318 49.1247 29.2646C49.1247 29.2111 49.1703 29.168 49.2264 29.168C49.2825 29.168 49.3281 29.2111 49.3281 29.2646C49.3281 29.3178 49.2825 29.3611 49.2264 29.3611Z" fill="white"/>
<path d="M48.8202 29.4217C48.764 29.4217 48.7184 29.3785 48.7184 29.3251C48.7184 29.2717 48.764 29.2285 48.8202 29.2285C48.8763 29.2285 48.9219 29.2717 48.9219 29.3251C48.9219 29.3785 48.8763 29.4217 48.8202 29.4217Z" fill="white"/>
<path d="M48.5545 29.6658C48.4984 29.6658 48.4528 29.6226 48.4528 29.5692C48.4528 29.5159 48.4984 29.4727 48.5545 29.4727C48.6107 29.4727 48.6562 29.5159 48.6562 29.5692C48.6562 29.6226 48.6107 29.6658 48.5545 29.6658Z" fill="white"/>
<path d="M48.5547 29.9735C48.5547 30.027 48.5091 30.0701 48.453 30.0701C48.3969 30.0701 48.3512 30.027 48.3512 29.9735C48.3512 29.9201 48.3969 29.877 48.453 29.877C48.5091 29.877 48.5547 29.9201 48.5547 29.9735Z" fill="white"/>
<path d="M48.6327 30.2188C48.6888 30.2188 48.7344 30.2619 48.7344 30.3153C48.7344 30.3688 48.6888 30.4119 48.6327 30.4119C48.5765 30.4119 48.5309 30.3688 48.5309 30.3153C48.5309 30.2621 48.5765 30.2188 48.6327 30.2188Z" fill="white"/>
<path d="M49.0077 30.4121C49.0638 30.4121 49.1094 30.4553 49.1094 30.5087C49.1094 30.5621 49.0638 30.6053 49.0077 30.6053C48.9515 30.6053 48.9059 30.5621 48.9059 30.5087C48.9059 30.4555 48.9515 30.4121 49.0077 30.4121Z" fill="white"/>
<path d="M49.3905 30.3535C49.4466 30.3535 49.4922 30.3967 49.4922 30.4501C49.4922 30.5035 49.4466 30.5467 49.3905 30.5467C49.3344 30.5467 49.2887 30.5035 49.2887 30.4501C49.2887 30.3967 49.3344 30.3535 49.3905 30.3535Z" fill="white"/>
<path d="M49.6639 30.1035C49.72 30.1035 49.7656 30.1467 49.7656 30.2001C49.7656 30.2535 49.72 30.2967 49.6639 30.2967C49.6078 30.2967 49.5622 30.2535 49.5622 30.2001C49.5622 30.1467 49.6078 30.1035 49.6639 30.1035Z" fill="white"/>
<path d="M49.3616 29.681C49.3334 29.6846 49.3075 29.6645 49.3039 29.6363C49.3001 29.6079 49.32 29.5821 49.3481 29.5785C49.3764 29.575 49.4022 29.5951 49.4058 29.6233C49.4095 29.6517 49.3897 29.6775 49.3616 29.681Z" fill="white"/>
<path d="M49.4397 29.8509C49.4114 29.8545 49.3856 29.8344 49.382 29.8062C49.3781 29.7778 49.3981 29.752 49.4262 29.7485C49.4544 29.7449 49.4803 29.765 49.4839 29.7932C49.4877 29.8216 49.4678 29.8474 49.4397 29.8509Z" fill="white"/>
<path d="M49.1659 29.579C49.1367 29.579 49.113 29.5565 49.113 29.5288C49.113 29.501 49.1367 29.4785 49.1659 29.4785C49.1951 29.4785 49.2188 29.501 49.2188 29.5288C49.2188 29.5565 49.1951 29.579 49.1659 29.579Z" fill="white"/>
<path d="M48.9549 29.6103C48.9257 29.6103 48.9021 29.5878 48.9021 29.56C48.9021 29.5322 48.9257 29.5098 48.9549 29.5098C48.9842 29.5098 49.0078 29.5322 49.0078 29.56C49.0078 29.5876 48.9842 29.6103 48.9549 29.6103Z" fill="white"/>
<path d="M48.8672 29.687C48.8672 29.7148 48.8436 29.7372 48.8143 29.7372C48.785 29.7372 48.7614 29.7148 48.7614 29.687C48.7614 29.6592 48.785 29.6367 48.8143 29.6367C48.8436 29.6367 48.8672 29.6592 48.8672 29.687Z" fill="white"/>
<path d="M48.7146 29.896C48.7146 29.8682 48.7382 29.8457 48.7674 29.8457C48.7967 29.8457 48.8203 29.8682 48.8203 29.896C48.8203 29.9238 48.7967 29.9462 48.7674 29.9462C48.7382 29.9462 48.7146 29.9238 48.7146 29.896Z" fill="white"/>
<path d="M48.8612 30.0254C48.8904 30.0254 48.9141 30.0479 48.9141 30.0757C48.9141 30.1034 48.8904 30.1259 48.8612 30.1259C48.8319 30.1259 48.8083 30.1034 48.8083 30.0757C48.8083 30.0479 48.8319 30.0254 48.8612 30.0254Z" fill="white"/>
<path d="M49.1094 30.1753C49.1094 30.2031 49.0858 30.2255 49.0565 30.2255C49.0272 30.2255 49.0036 30.2031 49.0036 30.1753C49.0036 30.1475 49.0272 30.125 49.0565 30.125C49.0858 30.125 49.1094 30.1475 49.1094 30.1753Z" fill="white"/>
<path d="M49.2518 30.0957C49.2811 30.0957 49.3047 30.1182 49.3047 30.146C49.3047 30.1738 49.2811 30.1962 49.2518 30.1962C49.2225 30.1962 49.1989 30.1738 49.1989 30.146C49.1989 30.1182 49.2225 30.0957 49.2518 30.0957Z" fill="white"/>
<path d="M49.4531 30.0151C49.4531 30.0429 49.4295 30.0654 49.4002 30.0654C49.371 30.0654 49.3474 30.0429 49.3474 30.0151C49.3474 29.9873 49.371 29.9648 49.4002 29.9648C49.4293 29.9648 49.4531 29.9873 49.4531 30.0151Z" fill="white"/>
<path d="M49.6637 29.8173C49.6637 29.7639 49.7094 29.7207 49.7655 29.7207C49.8216 29.7207 49.8672 29.7639 49.8672 29.8173C49.8672 29.8707 49.8216 29.9139 49.7655 29.9139C49.7094 29.9139 49.6637 29.8707 49.6637 29.8173Z" fill="white"/>
<path d="M26.2891 29.8772C26.2891 30.0133 26.176 30.1236 26.0368 30.1236C25.8975 30.1236 25.7845 30.0133 25.7845 29.8772C25.7845 29.7412 25.8975 29.6309 26.0368 29.6309C26.176 29.6311 26.2891 29.7412 26.2891 29.8772Z" fill="white"/>
<path d="M26.5153 29.574C26.459 29.574 26.4137 29.5309 26.4137 29.4776C26.4137 29.424 26.459 29.3809 26.5153 29.3809C26.5716 29.3809 26.6172 29.424 26.6172 29.4776C26.6172 29.5309 26.5716 29.574 26.5153 29.574Z" fill="white"/>
<path d="M26.1563 29.3807C26.1 29.3807 26.0544 29.3375 26.0544 29.2843C26.0544 29.2307 26.1 29.1875 26.1563 29.1875C26.212 29.1875 26.2578 29.2307 26.2578 29.2843C26.2578 29.3375 26.2122 29.3807 26.1563 29.3807Z" fill="white"/>
<path d="M25.7496 29.4412C25.6933 29.4412 25.6481 29.398 25.6481 29.3448C25.6481 29.2912 25.6933 29.248 25.7496 29.248C25.8059 29.248 25.8516 29.2912 25.8516 29.3448C25.8516 29.3978 25.8057 29.4412 25.7496 29.4412Z" fill="white"/>
<path d="M25.4762 29.6854C25.4199 29.6854 25.3747 29.6422 25.3747 29.589C25.3747 29.5354 25.4199 29.4922 25.4762 29.4922C25.5325 29.4922 25.5781 29.5354 25.5781 29.589C25.5781 29.6422 25.5325 29.6854 25.4762 29.6854Z" fill="white"/>
<path d="M25.4766 29.9933C25.4766 30.0465 25.4309 30.09 25.375 30.09C25.3187 30.09 25.2731 30.0463 25.2731 29.9933C25.2731 29.9397 25.3187 29.8965 25.375 29.8965C25.4309 29.8965 25.4766 29.9397 25.4766 29.9933Z" fill="white"/>
<path d="M25.7031 30.3526C25.7031 30.4059 25.6575 30.449 25.6012 30.449C25.5455 30.449 25.4997 30.4059 25.4997 30.3526C25.4997 30.299 25.5453 30.2559 25.6012 30.2559C25.6573 30.2559 25.7031 30.299 25.7031 30.3526Z" fill="white"/>
<path d="M25.9684 30.4492C26.0247 30.4492 26.0703 30.4924 26.0703 30.546C26.0703 30.5992 26.0247 30.6424 25.9684 30.6424C25.9121 30.6424 25.8669 30.5992 25.8669 30.546C25.8671 30.4924 25.9123 30.4492 25.9684 30.4492Z" fill="white"/>
<path d="M26.359 30.3906C26.4153 30.3906 26.4609 30.4338 26.4609 30.487C26.4609 30.5406 26.4153 30.5838 26.359 30.5838C26.3027 30.5838 26.2575 30.5406 26.2575 30.487C26.2577 30.434 26.3027 30.3906 26.359 30.3906Z" fill="white"/>
<path d="M26.5934 30.3162C26.5377 30.3162 26.4919 30.273 26.4919 30.2194C26.4919 30.1662 26.5375 30.123 26.5934 30.123C26.6497 30.123 26.6953 30.1662 26.6953 30.2194C26.6953 30.2729 26.6495 30.3162 26.5934 30.3162Z" fill="white"/>
<path d="M26.2913 29.7007C26.2632 29.7042 26.2374 29.6839 26.2331 29.6561C26.2295 29.6277 26.2493 29.6017 26.2773 29.598C26.306 29.5948 26.3318 29.6147 26.3355 29.6429C26.3393 29.6715 26.3195 29.6971 26.2913 29.7007Z" fill="white"/>
<path d="M26.3693 29.8705C26.3412 29.874 26.3154 29.8537 26.3116 29.8255C26.3079 29.7972 26.3277 29.7715 26.3558 29.768C26.3838 29.7644 26.4097 29.7847 26.4135 29.8129C26.4177 29.8407 26.398 29.8669 26.3693 29.8705Z" fill="white"/>
<path d="M26.0954 29.498C26.1248 29.498 26.1484 29.5205 26.1484 29.5485C26.1484 29.5765 26.125 29.599 26.0954 29.599C26.0663 29.599 26.0429 29.5765 26.0429 29.5485C26.0427 29.5207 26.0663 29.498 26.0954 29.498Z" fill="white"/>
<path d="M25.8844 29.6298C25.8554 29.6298 25.8319 29.6074 25.8319 29.5794C25.8319 29.552 25.8556 29.5293 25.8844 29.5293C25.9139 29.5293 25.9375 29.5518 25.9375 29.5794C25.9375 29.6074 25.9139 29.6298 25.8844 29.6298Z" fill="white"/>
<path d="M25.6913 29.7067C25.6913 29.6787 25.7149 29.6562 25.7444 29.6562C25.7735 29.6562 25.7969 29.6787 25.7969 29.7067C25.7969 29.7347 25.7733 29.7572 25.7444 29.7572C25.7149 29.7572 25.6913 29.7347 25.6913 29.7067Z" fill="white"/>
<path d="M25.6891 29.8672C25.7182 29.8672 25.7422 29.8897 25.7422 29.9173C25.7422 29.9452 25.7182 29.9677 25.6891 29.9677C25.6596 29.9677 25.636 29.9452 25.636 29.9173C25.636 29.8897 25.6596 29.8672 25.6891 29.8672Z" fill="white"/>
<path d="M25.7907 30.0449C25.8201 30.0449 25.8438 30.0674 25.8438 30.0954C25.8438 30.1228 25.8203 30.1454 25.7907 30.1454C25.7616 30.1454 25.7382 30.123 25.7382 30.0954C25.738 30.0674 25.7616 30.0449 25.7907 30.0449Z" fill="white"/>
<path d="M25.9251 30.195C25.9251 30.167 25.9491 30.1445 25.9782 30.1445C26.0072 30.1445 26.0312 30.167 26.0312 30.195C26.0312 30.2224 26.0072 30.2451 25.9782 30.2451C25.9489 30.2449 25.9251 30.2224 25.9251 30.195Z" fill="white"/>
<path d="M26.1813 30.1152C26.2104 30.1152 26.2344 30.1377 26.2344 30.1653C26.2344 30.1933 26.2104 30.2158 26.1813 30.2158C26.1522 30.2158 26.1282 30.1933 26.1282 30.1653C26.1282 30.1377 26.1522 30.1152 26.1813 30.1152Z" fill="white"/>
<path d="M26.2688 30.0348C26.2688 30.0068 26.2929 29.9844 26.3219 29.9844C26.351 29.9844 26.375 30.0068 26.375 30.0348C26.375 30.0622 26.351 30.0849 26.3219 30.0849C26.2929 30.0849 26.2688 30.0622 26.2688 30.0348Z" fill="white"/>
<path d="M26.593 29.8366C26.593 29.7834 26.6386 29.7402 26.695 29.7402C26.7513 29.7402 26.7969 29.7834 26.7969 29.8366C26.7969 29.8902 26.7513 29.9334 26.695 29.9334C26.6386 29.9334 26.593 29.8902 26.593 29.8366Z" fill="white"/>
<path d="M54.6484 26.6236L54.6075 30.4347L52.4033 30.4526V26.3762L54.2198 26.373L54.6484 26.6236ZM53.3073 29.3322H53.7219V29.1931H53.3073V29.3322ZM53.7083 28.028L53.3354 28.0185C53.3239 28.027 53.2791 28.0623 53.2732 28.1139C53.269 28.1508 53.2851 28.189 53.322 28.2278C53.4835 28.2355 53.6817 28.2288 53.7083 28.2275C53.7217 28.2194 53.7899 28.1752 53.7891 28.1216C53.7891 28.0887 53.7618 28.0571 53.7083 28.028Z" fill="white"/>
<path d="M57.6522 30.0165C57.7753 29.8297 57.8528 29.618 57.9077 29.4037C57.9607 29.1881 57.9902 28.9679 58.0027 28.7468C58.0146 28.5368 58.0138 28.3275 57.9953 28.1172L59.1317 28.1302C59.121 28.3953 59.1465 28.6344 59.1751 28.6985C59.2125 28.7826 59.2236 29.3558 59.1374 29.508C59.0512 29.6606 59.2236 29.9024 58.6262 30.16C58.1194 30.3784 57.4312 30.4076 57.2334 30.4113C57.4037 30.3183 57.5484 30.1795 57.6522 30.0165Z" fill="white"/>
<path d="M29.128 30.6862C29.128 30.6862 29.1451 30.7069 29.1395 30.7205C29.0975 30.8214 29.0477 30.8699 29.0016 30.8064C28.9556 30.7426 28.7831 30.7763 28.7831 30.7763C28.7831 30.7763 28.4032 31.4003 27.2252 31.4504C26.9047 31.6562 26.5194 31.7768 26.1048 31.7768C25.346 31.7768 24.6852 31.3747 24.3413 30.7804L24.3036 30.792C24.3036 30.792 24.3036 30.792 24.1538 30.7889C24.1599 31.0132 23.9671 31.1297 23.9241 31.1478C23.8813 31.1658 23.7867 30.7296 23.7867 30.7296C23.7867 30.7296 23.4622 30.7148 23.3366 30.6994C23.2113 30.6846 23.2052 30.5346 23.2052 30.5346L22.9756 30.5297C22.9756 30.5297 22.9289 30.9273 22.9027 31.0443C22.8765 31.1614 22.8193 31.3041 22.6783 31.2789C22.5376 31.2533 22.5953 30.5405 22.5953 30.5405C22.5953 30.5405 22.1775 30.5108 21.0421 30.4424C19.9066 30.374 19.6008 30.4508 18.8218 30.3915C18.0426 30.3316 16.6425 30.083 16.4336 30.0231C16.2875 29.9817 16.0394 30.0105 15.8094 30.0073L15.7896 26.4395L29.1108 26.416L29.128 30.6862ZM22.0266 29.6835C22.0266 29.6835 22.0308 29.6537 22.0363 29.6001L19.5918 29.6303C20.8358 29.6744 22.0266 29.6835 22.0266 29.6835ZM18.7685 29.5952L22.0409 29.5552C22.0445 29.5177 22.0488 29.4738 22.0528 29.4233H16.9939C17.3126 29.5016 18.0004 29.5564 18.7685 29.5952ZM16.8589 29.3782H22.056C22.0593 29.334 22.0621 29.2859 22.0647 29.2351H16.6978C16.744 29.2985 16.7975 29.3474 16.8589 29.3782ZM16.6683 29.1899H22.0671C22.0694 29.1418 22.0714 29.0908 22.0722 29.0382H16.5937C16.6159 29.0935 16.6407 29.1444 16.6683 29.1899ZM21.5065 26.9102L16.4526 26.9242C16.4526 26.9242 16.4483 26.9673 16.4429 27.042L21.612 27.019C21.5793 26.9799 21.5438 26.9435 21.5065 26.9102ZM21.6482 27.0637L16.4403 27.0872C16.437 27.1359 16.4334 27.1938 16.4302 27.2596C17.1481 27.2543 21.0594 27.2253 21.7511 27.2204C21.7196 27.165 21.6855 27.1128 21.6482 27.0637ZM21.7753 27.265C21.1543 27.2695 17.1295 27.2997 16.4282 27.3046C16.4268 27.3375 16.4253 27.3722 16.4245 27.4077H21.8421C21.8219 27.3588 21.7993 27.3109 21.7753 27.265ZM21.8607 27.4528H16.4231C16.4213 27.519 16.4199 27.5888 16.4195 27.6614L21.9164 27.6137C21.8994 27.5587 21.8809 27.505 21.8607 27.4528ZM21.9297 27.6586L16.4193 27.7063C16.4193 27.7414 16.4193 27.7774 16.4197 27.8135H21.9697C21.958 27.7613 21.9446 27.7094 21.9297 27.6586ZM21.9796 27.8585H16.4209C16.4219 27.9174 16.4237 27.9773 16.4263 28.038L22.0064 27.9943C21.9981 27.9489 21.9892 27.9036 21.9796 27.8585ZM22.0137 28.0394L16.4282 28.0832C16.431 28.1344 16.4342 28.1863 16.4379 28.2381L22.0367 28.203C22.0298 28.1484 22.0225 28.094 22.0137 28.0394ZM22.0419 28.248L16.4417 28.2826C16.4459 28.3299 16.4504 28.3767 16.456 28.4236L22.0566 28.4037C22.0524 28.352 22.0478 28.3002 22.0419 28.248ZM22.0603 28.4488L16.4615 28.4685C16.4683 28.5225 16.4762 28.5761 16.4851 28.628L22.0692 28.6122C22.0671 28.5586 22.0639 28.5038 22.0603 28.4488ZM22.0708 28.6573L16.4932 28.6731C16.5018 28.7194 16.5111 28.7646 16.5218 28.8081L22.0736 28.7766C22.0732 28.7374 22.0722 28.6978 22.0708 28.6573ZM22.074 28.8215L16.5333 28.8531C16.5462 28.9022 16.561 28.9485 16.5767 28.993H22.0732C22.0746 28.9378 22.0746 28.8807 22.074 28.8215ZM25.9989 28.7307C25.3668 28.7307 24.8527 29.2453 24.8527 29.8775C24.8527 30.5096 25.3668 31.0242 25.9989 31.0242C26.6314 31.0242 27.1455 30.5096 27.1455 29.8775C27.1455 29.2453 26.6314 28.7307 25.9989 28.7307Z" fill="white"/>
<path d="M26.001 30.9791C25.3943 30.9791 24.9011 30.4847 24.9011 29.8772C24.9011 29.2697 25.3943 28.7754 26.001 28.7754C26.6077 28.7754 27.1016 29.2697 27.1016 29.8772C27.1016 30.4847 26.6077 30.9791 26.001 30.9791ZM26.8499 30.2155C26.8309 30.1008 26.8735 30.0079 26.9112 29.9263C26.9605 29.8183 26.9058 29.6939 26.8291 29.6318C26.7792 29.5918 26.7857 29.5548 26.7922 29.5193C26.799 29.4793 26.8065 29.4337 26.7502 29.3509C26.6519 29.2073 26.5728 29.1988 26.4888 29.1893L26.4658 29.1866C26.4041 29.1785 26.393 29.1385 26.3847 29.1063C26.3764 29.077 26.3699 29.0513 26.3308 29.033C26.2339 28.9871 26.1255 28.9893 25.9994 29.0397C25.9257 29.0689 25.8809 29.0537 25.8375 29.0387C25.7919 29.0234 25.7489 29.009 25.6613 29.0397C25.5784 29.0689 25.5479 29.1231 25.5185 29.1753C25.4866 29.2311 25.4539 29.2889 25.363 29.3054C25.287 29.319 25.2202 29.3649 25.1842 29.4284C25.1649 29.4627 25.1576 29.4982 25.1663 29.5193L25.1727 29.5354C25.1996 29.5993 25.2401 29.6953 25.1307 29.81C25.0718 29.8713 25.0698 29.946 25.074 29.9852C25.0801 30.0438 25.1053 30.0897 25.1271 30.1051C25.1957 30.1528 25.2383 30.2105 25.2383 30.3477C25.2383 30.4581 25.266 30.5746 25.4734 30.6085C25.5126 30.6152 25.5435 30.6193 25.5685 30.6225C25.6852 30.6379 25.6906 30.6414 25.7649 30.7554C25.7911 30.7946 25.8198 30.817 25.8529 30.8234C25.9128 30.8356 25.9861 30.7922 26.0503 30.7487C26.0955 30.7181 26.1286 30.7094 26.1619 30.7094C26.1802 30.7094 26.1982 30.7122 26.2186 30.7147C26.2634 30.7215 26.3191 30.7291 26.416 30.7144C26.5326 30.6964 26.5548 30.64 26.5807 30.5752C26.599 30.5289 26.6202 30.4757 26.6797 30.441C26.8176 30.3609 26.8636 30.2996 26.8499 30.2155Z" fill="white"/>
<path d="M14.1183 27.8798C14.1183 27.8798 14.1183 27.8798 14.1284 27.6807C13.8638 27.4669 14.0777 27.2481 14.0777 27.2481C14.0777 27.2481 14.0777 27.2481 14.0777 27.049C13.9607 26.7807 14.0777 26.6213 14.0777 26.6213C14.0777 26.6213 14.0795 26.5452 14.0824 26.4102L15.6869 26.4255V26.4395H15.6994L15.7188 30.0046C15.6534 30.0005 15.591 29.993 15.5343 29.9784C15.2596 29.9087 15.2083 29.8542 14.5766 29.6948C13.9455 29.5359 14.1031 29.0932 14.0828 28.8793C14.0626 28.6655 14.1593 28.5313 14.1593 28.5313C14.1593 28.5313 14.1593 28.5313 14.1593 28.3223C14.0012 28.1881 14.1183 27.8798 14.1183 27.8798Z" fill="white"/>
<path d="M37.375 30.4228L30.6946 30.4052L30.1073 30.4133C30.0667 30.5002 29.9684 30.665 29.8068 30.6538C29.6391 30.6422 29.3624 30.6286 29.2245 30.6686L29.2074 26.4167L37.3681 26.4023L37.375 30.4228ZM33.575 29.0811H32.9904L32.9867 29.5993H33.575V29.0811Z" fill="white"/>
<path d="M49.1182 28.7344C49.7249 28.7344 50.2188 29.2287 50.2188 29.8362C50.2188 30.4437 49.7249 30.9381 49.1182 30.9381C48.5115 30.9381 48.0177 30.4437 48.0177 29.8362C48.0177 29.2287 48.5115 28.7344 49.1182 28.7344ZM48.2594 29.4093C48.2401 29.4436 48.2332 29.4791 48.2415 29.5001L48.2483 29.5167C48.2752 29.5802 48.3151 29.6766 48.206 29.7909C48.1474 29.8522 48.1456 29.9269 48.1492 29.9661C48.1553 30.0247 48.1805 30.071 48.2027 30.086C48.2709 30.134 48.3133 30.1914 48.3133 30.3292C48.3133 30.439 48.3414 30.5561 48.5489 30.59C48.5876 30.5963 48.6185 30.6004 48.6439 30.6036C48.679 30.6081 48.7039 30.6116 48.7236 30.618C48.7376 30.6215 48.7485 30.627 48.7592 30.6341C48.9422 30.8389 49.1666 30.7 49.1921 30.6968C49.2078 30.6923 49.2219 30.6905 49.2369 30.6905C49.2373 30.6905 49.2373 30.6905 49.2373 30.6905C49.2556 30.6905 49.2736 30.6932 49.294 30.6964C49.3388 30.7027 49.3945 30.7108 49.4908 30.6954C49.6074 30.6775 49.63 30.6215 49.6553 30.5567C49.6742 30.5097 49.6948 30.4571 49.7548 30.4224C49.893 30.3418 49.9392 30.2805 49.9253 30.1963C49.9063 30.082 49.9489 29.9892 49.9862 29.9072C50.0361 29.7992 49.9812 29.6748 49.9041 29.6127C49.8549 29.5731 49.8613 29.5356 49.8672 29.5001C49.874 29.4601 49.8819 29.4146 49.8252 29.3318C49.7275 29.1887 49.6482 29.1796 49.5638 29.1702L49.5408 29.1674C49.4791 29.1597 49.4684 29.1197 49.4597 29.0872C49.4518 29.058 49.445 29.0328 49.4062 29.0143C49.3089 28.9683 49.2005 28.9701 49.0748 29.0206C49.0009 29.0498 48.9559 29.0346 48.9125 29.0202C48.8673 29.0044 48.8245 28.99 48.7363 29.0212C48.6538 29.0499 48.6229 29.104 48.5935 29.1562C48.5622 29.212 48.5293 29.2701 48.4381 29.2863C48.3626 29.3003 48.2958 29.3462 48.2594 29.4093Z" fill="white"/>
<path d="M52.3125 26.375V30.4522L51.4771 30.4589L51.3365 30.7169H50.8297C50.4876 31.3189 49.8228 31.7269 49.0579 31.7269C48.2936 31.7269 47.6286 31.3189 47.2867 30.7173C47.1696 30.7177 46.7837 30.7201 46.7458 30.7173C46.7016 30.7138 46.6909 30.4333 46.6909 30.4333C46.6909 30.4333 46.0426 30.4364 45.8071 30.4347C45.8035 30.4094 45.8131 26.3868 45.8131 26.3868L52.3125 26.375ZM49.1174 30.9822C49.7495 30.9822 50.264 30.4676 50.264 29.8355C50.264 29.2033 49.7495 28.6887 49.1174 28.6887C48.4853 28.6887 47.9708 29.2033 47.9708 29.8355C47.9708 30.4676 48.4855 30.9822 49.1174 30.9822Z" fill="white"/>
<path d="M45.7093 30.406V30.4365C45.7093 30.4365 38.0076 30.4324 37.475 30.4261L37.4579 26.4011L45.7188 26.3867L45.7093 30.406ZM41.8774 29.0745H41.2984V29.6085H41.8774V29.0745Z" fill="white"/>
<path d="M15.6881 26.3353L14.0861 26.3199C14.1026 25.5567 14.1502 23.504 14.1999 22.0285C14.2621 20.1833 14.7182 19.701 14.8601 19.4913C15.0015 19.2814 14.8772 18.8617 15.1135 18.7776C15.3497 18.6938 23.8148 18.652 23.8148 18.652L23.9006 18.5511L27.1062 18.5556L27.2523 18.6433C27.2523 18.6433 38.0434 18.7135 38.4338 18.65C38.8239 18.5866 41.2305 17.872 41.6371 17.7449C42.0438 17.6182 47.1332 17.5547 50.0114 17.5547C52.8897 17.5547 55.7818 18.2176 56.6353 18.8452C57.4892 19.4728 57.705 20.2927 57.705 20.2927C57.705 20.2927 58.2786 20.203 59.1872 20.3868C60.0958 20.5705 60.4756 21.4251 60.4756 21.49C60.4756 21.5544 60.4756 21.6187 60.5208 21.6701C60.5661 21.721 60.6706 22.5599 60.6637 22.7026C60.6563 22.8453 60.5001 22.9746 60.3576 22.9372C60.2147 22.8997 60.0514 21.8773 60.0338 21.7785C60.0163 21.68 59.9085 21.6187 59.9993 21.6053C60.0898 21.5917 60.0898 21.4967 59.985 21.4391C59.8809 21.381 59.7904 21.3301 59.6825 21.15C59.5745 20.9704 58.9452 20.9631 58.6354 20.9735C59.1016 21.313 59.2722 21.7988 59.2851 21.8872C59.298 21.9759 59.2302 21.9282 59.2302 21.9282L59.2233 22.0165C59.2233 22.0165 59.3137 22.1763 59.2754 22.7264C59.2485 23.1138 59.1565 23.1812 59.1038 23.1871C59.102 23.1885 59.0996 23.1893 59.0974 23.1898C59.0881 23.1916 58.882 23.2308 58.8001 23.2308H58.7932C58.7696 23.2299 58.7311 23.2287 58.6522 22.6107C58.6134 22.3078 58.5835 21.9952 58.5821 21.9646C58.5817 21.9587 58.5835 21.9502 58.5918 21.9416C58.6352 21.897 58.8929 21.8921 58.9735 21.8915L58.9624 21.8568L58.8061 21.8532C58.8061 21.8532 58.5696 21.7515 58.5175 21.4182C58.3884 21.4561 58.2358 21.3997 58.145 21.3561C58.1999 21.5785 58.3123 22.0046 58.499 22.594C58.7732 23.4621 59.0134 25.5445 59.0134 25.5445C59.0859 25.8579 59.055 26.6958 59.0724 27.2424C59.1636 27.3581 59.2015 27.5211 59.1531 27.8732C59.1434 27.9429 59.1333 28.0403 59.1333 28.0403L57.9605 28.0539L57.9246 28.0543L57.9288 28.0894C57.9542 28.305 57.9615 28.5258 57.9546 28.7446C57.9478 28.9634 57.9234 29.1822 57.8763 29.3966C57.8275 29.6101 57.7561 29.8208 57.6384 30.0081C57.5389 30.1732 57.3982 30.3148 57.2285 30.4119C57.1958 30.4123 57.1778 30.4123 57.1778 30.4123L54.7002 30.4326L54.7418 26.572L54.2457 26.2821H54.2328L15.7923 26.3491H15.7804V23.49H15.6881V26.3353ZM58.6168 21.9632C58.6211 22.0502 58.7331 23.1313 58.7975 23.1969C58.8556 23.1983 59.0045 23.1727 59.0649 23.1619C59.0574 23.0942 59.0326 22.8607 59.015 22.5971C58.9971 22.3306 58.9819 22.0131 58.9777 21.9254C58.8136 21.926 58.632 21.9416 58.6168 21.9632ZM57.9405 21.9975C58.035 22.5037 58.3748 25.1594 58.4086 25.3119C58.4423 25.4641 58.7708 25.4209 58.9377 25.4209C58.9424 25.4209 58.9464 25.4219 58.9507 25.4237C58.8857 24.9644 58.6509 23.3791 58.4108 22.6208C58.1286 21.7275 58.0148 21.2055 58.0134 21.2002L58.0356 21.1957L57.9738 20.9525H57.6174C57.6172 20.9525 57.8455 21.4914 57.9405 21.9975ZM54.7598 25.2272L56.2563 25.1992L56.8317 24.8489L56.8127 24.5874L54.7598 24.6013V25.2272ZM54.7598 24.3847H56.7944C56.7944 24.3847 56.6547 23.1205 56.5948 22.8952C56.5495 22.7259 56.266 22.3086 55.8442 22.2824C55.4637 22.2593 54.7598 22.2824 54.7598 22.2824V24.3847ZM54.7598 22.0397C54.7598 22.0397 55.8101 21.9952 56.1816 22.1483C56.5532 22.3019 56.8141 22.5414 56.887 23.4662C56.9595 24.3906 57.0632 25.1992 57.0632 25.1992L57.7718 25.182C57.7718 25.182 57.3877 21.9518 57.1401 21.542C56.5425 21.542 54.9507 21.4992 54.9507 21.4992L54.7598 21.7029V22.0397ZM50.6561 23.0665C50.6561 23.0665 51.0678 23.085 51.5035 22.8999C51.9393 22.7152 53.568 21.1983 53.568 21.1983L53.5393 19.9776C53.5393 19.9776 51.7496 19.959 50.9447 19.9776C51.0157 20.2086 50.7745 20.9209 50.7031 21.1519C50.632 21.3833 50.5089 21.4941 50.5473 21.6837C50.585 21.8734 50.533 22.3916 50.5089 22.5258C50.4855 22.6594 50.6561 23.0665 50.6561 23.0665ZM43.9848 21.8633C44.0548 21.8462 44.2019 21.9214 44.2582 21.966C44.3145 22.0101 44.4298 21.9349 44.6574 21.8836C44.8851 21.8324 44.8082 22.2465 44.857 22.3663C44.9059 22.4856 45.0254 23.1173 45.0254 23.1173H46.9096C46.9096 23.1173 46.892 22.7832 46.8884 22.7458C46.8848 22.7079 46.6505 22.6602 46.6361 22.2122C46.6222 21.7642 47.2212 21.8395 47.2069 22.0992C47.4941 21.8395 47.7044 22.0241 47.7181 22.2191C47.7324 22.414 47.7393 23.1173 47.7393 23.1173H49.5004L49.7323 22.6224C49.7323 22.6224 49.7323 22.6224 49.6992 21.6607C49.2257 20.8281 49.1924 19.9961 49.1924 19.9961L44.4225 20.0402C44.4225 20.0402 44.3525 20.2078 44.258 20.7039C44.1636 21.1996 43.9288 21.6922 43.9288 21.6922C43.9288 21.6922 43.9151 21.8805 43.9848 21.8633ZM37.4878 21.9705C37.5574 22.0849 37.4842 22.2816 37.5538 22.3533C37.6234 22.4249 37.7294 22.5181 37.7003 22.6433C37.7625 22.6577 37.8396 22.5325 37.8138 22.3965C37.7879 22.2605 37.887 22.1101 38.0116 22.0673C38.1361 22.0241 38.107 21.8418 38.2241 21.8773C38.3411 21.9134 38.5246 21.9958 38.55 22.1385C38.5759 22.2816 38.6128 22.8256 38.6965 22.8291C38.7809 22.8327 38.8542 22.704 38.8653 22.4607C38.8764 22.2171 38.9016 22.0348 39.0994 22.0703C39.2976 22.1063 39.2976 22.2423 39.4623 22.3031C39.6274 22.3638 39.6748 22.3318 39.7081 22.4889C39.7408 22.6466 39.8141 23.0257 39.9935 23.0046C40.1733 22.9829 40.5998 22.9577 40.602 22.8658C40.6048 22.7739 40.536 21.969 40.7366 21.954C40.9372 21.9392 40.8916 22.2015 41.0335 22.0876C41.1756 21.9737 41.4014 21.7953 41.47 22.1795C41.5382 22.5636 41.5078 22.6973 41.5715 22.8634C41.6347 23.0292 41.6652 23.1169 41.6652 23.1169H42.5877C42.5877 23.1169 42.6789 22.8824 42.7413 22.8252C42.8041 22.768 42.8737 22.7324 42.793 22.5893C42.7123 22.4462 42.8142 21.8054 42.8293 21.7019C42.844 21.5984 42.9173 21.6268 42.8071 21.3835C42.6973 21.1399 42.4628 20.2494 42.4152 20.0665C42.067 20.0844 37.9934 20.1025 37.9934 20.1025C37.9934 20.1025 37.7625 21.1971 37.601 21.5014C37.4404 21.8057 37.4182 21.856 37.4878 21.9705ZM29.9624 21.6378C29.9836 21.7559 29.9771 22.0326 29.9771 22.0326C29.9771 22.0326 30.233 21.979 30.2912 22.0533C30.3489 22.128 30.4088 22.1529 30.4782 22.0421C30.5475 21.9317 30.9564 21.8931 31.0859 21.9632C31.2151 22.033 31.2454 22.0713 31.2151 22.2315C31.1852 22.3918 31.1297 22.5092 31.2129 22.6196C31.2962 22.7304 31.5296 23.1703 31.5296 23.1703H32.3687C32.3687 23.1703 32.176 22.5287 32.106 22.223C32.0363 21.9173 32.6822 21.7259 32.7966 22.0618C32.9114 22.3977 32.9391 22.6981 32.9391 22.6981L34.5246 22.7121C34.5246 22.7121 34.614 22.9791 34.5721 23.1703C34.768 23.1735 35.229 23.1703 35.229 23.1703C35.229 23.1703 35.0413 22.7339 35.0262 22.4225C35.011 22.1105 35.1432 21.8542 35.341 21.9177C35.5384 21.9812 35.5862 21.9538 35.6425 22.064C35.6992 22.1743 35.6906 22.9137 35.7588 22.9636C35.7588 22.9636 35.8708 22.7631 35.9368 22.7101C36.0032 22.6569 35.9792 22.5453 35.9368 22.3858C35.8948 22.227 35.8991 21.8937 35.9784 21.7113C36.0577 21.5286 35.6958 20.8446 35.6262 20.5943C35.557 20.344 35.5418 20.1642 35.5418 20.1642L30.4334 20.167C30.4334 20.167 30.207 20.9477 30.0895 21.2544C29.9711 21.5611 29.9412 21.5197 29.9624 21.6378ZM23.2279 22.7121C23.3086 22.7818 23.4017 23.0483 23.4949 23.1516C23.588 23.2547 23.706 23.1849 23.706 23.1849C23.706 23.1849 23.5571 22.6973 23.464 22.3969C23.371 22.0971 23.4174 21.8939 23.5448 21.7638C23.6715 21.6337 24.0283 21.9124 24.1837 21.9394C24.3387 21.9668 24.4134 22.0488 24.4193 22.2487C24.4257 22.4485 24.4724 22.5516 24.4724 22.5516C24.4724 22.5516 24.4627 22.3178 24.4968 22.1667C24.5309 22.0153 24.7696 22.0032 24.8443 22.1154C24.9186 22.2276 24.9747 22.2244 25.0988 22.2364C25.2227 22.2487 25.3035 22.3847 25.2879 22.6817C25.2728 22.9783 25.3935 23.2238 25.3935 23.2238L26.293 23.209C26.293 23.209 26.1538 22.8029 26.1473 22.3423C26.1412 21.882 26.5318 21.788 26.712 21.8578C26.8918 21.9272 26.8702 21.9002 26.9816 21.8546C27.0932 21.8091 27.4533 21.9181 27.7171 21.9181C27.9809 21.9181 28.1205 21.9423 28.1357 22.1032C28.1514 22.2634 28.1561 22.3823 27.9042 22.539C27.9005 22.8636 27.9623 23.1918 27.9623 23.1918H28.9412C28.9412 23.1918 29.037 22.9271 29.122 22.8416C29.2068 22.756 29.2261 22.6596 29.1797 22.4939C29.1331 22.3281 29.1438 21.7959 29.1987 21.6676C29.2536 21.5396 29.119 21.4622 29.0709 21.3023C29.0235 21.1429 28.7712 20.164 28.7712 20.164L23.6376 20.1879C23.6376 20.1879 23.5758 20.4788 23.5135 20.7485C23.4517 21.0181 23.3553 21.3118 23.2281 21.4212C23.101 21.5302 23.213 21.5877 23.2529 21.7058C23.2935 21.8243 23.3337 22.4631 23.2281 22.5297C23.1223 22.5971 23.1472 22.6423 23.2279 22.7121ZM19.7135 21.3256C19.7135 21.4336 19.7242 21.4675 19.8191 21.4647C19.9135 21.462 19.9113 21.6891 19.8689 21.8199C19.827 21.9514 19.8209 22.0433 19.8883 22.1852C19.9557 22.3271 20.051 22.6308 20.1004 22.7728C20.1503 22.9141 20.4615 22.9141 20.4615 22.9141C20.4615 22.9141 20.1858 22.4373 20.1715 22.0086C20.1571 21.5799 20.5218 21.5939 20.7445 21.7078C20.9677 21.8221 20.9394 21.6457 21.2438 21.7078C21.5481 21.7705 21.5869 21.9981 21.5836 22.2021C21.58 22.4061 21.8488 22.5341 21.9796 22.5857C22.1106 22.6375 22.3762 22.6306 22.3762 22.6306C22.3762 22.6306 22.3734 22.4402 22.3522 22.1209C22.331 21.8016 22.3601 21.7707 22.3917 21.5751C22.423 21.3792 22.1861 20.7309 22.0755 20.5994C21.9643 20.468 21.8537 20.177 21.8537 20.177C21.8537 20.177 20.4936 20.1928 20.2013 20.2391C19.9085 20.2854 19.7081 20.4912 19.7135 20.5502C19.7186 20.6103 19.7135 21.2176 19.7135 21.3256ZM15.6337 25.2286C15.6337 25.2286 15.1214 25.1952 14.9329 25.2506C14.7448 25.3056 14.6582 25.9935 14.6582 25.9935L14.7448 26.0931H15.6337V25.2286Z" fill="white"/>
</svg>
