<svg width="116" height="40" viewBox="0 0 116 40" fill="none" xmlns="http://www.w3.org/2000/svg">
<path d="M86.6444 34.605C86.6444 34.2222 86.925 33.9121 87.2714 33.9121C87.6178 33.9121 87.8984 34.2222 87.8984 34.605C87.8984 34.9877 87.6178 35.2978 87.2714 35.2978C86.925 35.2978 86.6444 34.9877 86.6444 34.605Z" fill="white"/>
<path d="M88.4814 33.207C88.6209 33.207 88.7344 33.3285 88.7344 33.4788C88.7344 33.6292 88.6209 33.7507 88.4814 33.7507C88.3418 33.7507 88.2283 33.6292 88.2283 33.4788C88.2283 33.3285 88.3418 33.207 88.4814 33.207Z" fill="white"/>
<path d="M87.5751 33.2077C87.4355 33.2077 87.3221 33.0862 87.3221 32.9359C87.3221 32.7855 87.4355 32.6641 87.5751 32.6641C87.7147 32.6641 87.8281 32.7855 87.8281 32.9359C87.8281 33.0857 87.7147 33.2077 87.5751 33.2077Z" fill="white"/>
<path d="M86.5673 33.3796C86.4277 33.3796 86.3143 33.2581 86.3143 33.1078C86.3143 32.9574 86.4277 32.8359 86.5673 32.8359C86.7069 32.8359 86.8203 32.9574 86.8203 33.1078C86.8203 33.2581 86.7069 33.3796 86.5673 33.3796Z" fill="white"/>
<path d="M85.8876 34.0671C85.7479 34.0671 85.6346 33.9454 85.6346 33.7953C85.6346 33.6451 85.7479 33.5234 85.8876 33.5234C86.0273 33.5234 86.1406 33.6451 86.1406 33.7953C86.1406 33.9454 86.0273 34.0671 85.8876 34.0671Z" fill="white"/>
<path d="M85.8984 34.9261C85.8984 35.0764 85.785 35.1979 85.6454 35.1979C85.5059 35.1979 85.3924 35.0764 85.3924 34.9261C85.3924 34.7758 85.5059 34.6543 85.6454 34.6543C85.785 34.6543 85.8984 34.7758 85.8984 34.9261Z" fill="white"/>
<path d="M86.0907 35.6211C86.2303 35.6211 86.3438 35.7426 86.3438 35.8929C86.3438 36.0432 86.2303 36.1647 86.0907 36.1647C85.9512 36.1647 85.8377 36.0432 85.8377 35.8929C85.8377 35.7431 85.9512 35.6211 86.0907 35.6211Z" fill="white"/>
<path d="M87.0126 36.1621C87.1522 36.1621 87.2656 36.2836 87.2656 36.4339C87.2656 36.5843 87.1522 36.7057 87.0126 36.7057C86.873 36.7057 86.7596 36.5843 86.7596 36.4339C86.7596 36.2841 86.873 36.1621 87.0126 36.1621Z" fill="white"/>
<path d="M87.9892 36C88.1287 36 88.2422 36.1215 88.2422 36.2718C88.2422 36.4221 88.1287 36.5436 87.9892 36.5436C87.8496 36.5436 87.7362 36.4221 87.7362 36.2718C87.7362 36.1215 87.8496 36 87.9892 36Z" fill="white"/>
<path d="M88.661 35.2949C88.8006 35.2949 88.9141 35.4164 88.9141 35.5667C88.9141 35.7171 88.8006 35.8385 88.661 35.8385C88.5215 35.8385 88.408 35.7171 88.408 35.5667C88.408 35.4164 88.5215 35.2949 88.661 35.2949Z" fill="white"/>
<path d="M87.9124 34.1041C87.8421 34.114 87.7779 34.0575 87.7688 33.9781C87.7593 33.8982 87.809 33.8256 87.8788 33.8156C87.9491 33.8056 88.0133 33.8622 88.0224 33.9415C88.0314 34.0214 87.9822 34.0941 87.9124 34.1041Z" fill="white"/>
<path d="M88.0998 34.5845C88.0295 34.5945 87.9653 34.5379 87.9562 34.4586C87.9467 34.3787 87.9964 34.306 88.0662 34.2961C88.1365 34.2861 88.2007 34.3427 88.2098 34.422C88.2193 34.5019 88.1696 34.5745 88.0998 34.5845Z" fill="white"/>
<path d="M87.431 33.8181C87.3583 33.8181 87.2994 33.7547 87.2994 33.6766C87.2994 33.5985 87.3583 33.5352 87.431 33.5352C87.5036 33.5352 87.5625 33.5985 87.5625 33.6766C87.5625 33.7547 87.5036 33.8181 87.431 33.8181Z" fill="white"/>
<path d="M86.8997 33.906C86.8269 33.906 86.7682 33.8427 86.7682 33.7645C86.7682 33.6863 86.8269 33.623 86.8997 33.623C86.9725 33.623 87.0312 33.6863 87.0312 33.7645C87.0312 33.8422 86.9725 33.906 86.8997 33.906Z" fill="white"/>
<path d="M86.6875 34.1219C86.6875 34.2001 86.6288 34.2634 86.556 34.2634C86.4832 34.2634 86.4244 34.2001 86.4244 34.1219C86.4244 34.0437 86.4832 33.9805 86.556 33.9805C86.6288 33.9805 86.6875 34.0437 86.6875 34.1219Z" fill="white"/>
<path d="M86.2916 34.7137C86.2916 34.6355 86.3504 34.5723 86.4232 34.5723C86.496 34.5723 86.5547 34.6355 86.5547 34.7137C86.5547 34.7919 86.496 34.8552 86.4232 34.8552C86.3504 34.8552 86.2916 34.7919 86.2916 34.7137Z" fill="white"/>
<path d="M86.6653 35.0742C86.7381 35.0742 86.7969 35.1375 86.7969 35.2157C86.7969 35.2939 86.7381 35.3571 86.6653 35.3571C86.5926 35.3571 86.5338 35.2939 86.5338 35.2157C86.5338 35.1375 86.5926 35.0742 86.6653 35.0742Z" fill="white"/>
<path d="M87.2656 35.4969C87.2656 35.5751 87.2069 35.6384 87.1341 35.6384C87.0613 35.6384 87.0026 35.5751 87.0026 35.4969C87.0026 35.4187 87.0613 35.3555 87.1341 35.3555C87.2069 35.3555 87.2656 35.4187 87.2656 35.4969Z" fill="white"/>
<path d="M87.6419 35.2695C87.7147 35.2695 87.7734 35.3328 87.7734 35.411C87.7734 35.4892 87.7147 35.5524 87.6419 35.5524C87.5691 35.5524 87.5104 35.4892 87.5104 35.411C87.5104 35.3328 87.5691 35.2695 87.6419 35.2695Z" fill="white"/>
<path d="M88.1172 35.0477C88.1172 35.1259 88.0585 35.1892 87.9857 35.1892C87.9129 35.1892 87.8541 35.1259 87.8541 35.0477C87.8541 34.9695 87.9129 34.9062 87.9857 34.9062C88.0579 34.9062 88.1172 34.9695 88.1172 35.0477Z" fill="white"/>
<path d="M88.6502 34.4867C88.6502 34.3363 88.7637 34.2148 88.9032 34.2148C89.0428 34.2148 89.1562 34.3363 89.1562 34.4867C89.1562 34.637 89.0428 34.7585 88.9032 34.7585C88.7637 34.7585 88.6502 34.637 88.6502 34.4867Z" fill="white"/>
<path d="M30.5547 34.6582C30.5547 35.041 30.2736 35.3516 29.9272 35.3516C29.5808 35.3516 29.2996 35.041 29.2996 34.6582C29.2996 34.2755 29.5808 33.9648 29.9272 33.9648C30.2736 33.9654 30.5547 34.2755 30.5547 34.6582Z" fill="white"/>
<path d="M31.1215 33.8073C30.9814 33.8073 30.869 33.6858 30.869 33.536C30.869 33.3852 30.9814 33.2637 31.1215 33.2637C31.2615 33.2637 31.375 33.3852 31.375 33.536C31.375 33.6858 31.2615 33.8073 31.1215 33.8073Z" fill="white"/>
<path d="M30.2162 33.2643C30.0762 33.2643 29.9627 33.1428 29.9627 32.9931C29.9627 32.8422 30.0762 32.7207 30.2162 32.7207C30.3548 32.7207 30.4688 32.8422 30.4688 32.9931C30.4688 33.1428 30.3553 33.2643 30.2162 33.2643Z" fill="white"/>
<path d="M29.2074 33.4323C29.0674 33.4323 28.9549 33.3108 28.9549 33.161C28.9549 33.0102 29.0674 32.8887 29.2074 32.8887C29.3475 32.8887 29.4609 33.0102 29.4609 33.161C29.4609 33.3103 29.347 33.4323 29.2074 33.4323Z" fill="white"/>
<path d="M28.5277 34.1218C28.3877 34.1218 28.2752 34.0003 28.2752 33.8505C28.2752 33.6996 28.3877 33.5781 28.5277 33.5781C28.6678 33.5781 28.7812 33.6996 28.7812 33.8505C28.7813 34.0003 28.6678 34.1218 28.5277 34.1218Z" fill="white"/>
<path d="M28.5312 34.9794C28.5312 35.1292 28.4178 35.2518 28.2787 35.2518C28.1387 35.2518 28.0252 35.1286 28.0252 34.9794C28.0252 34.8285 28.1387 34.707 28.2787 34.707C28.4178 34.707 28.5312 34.8285 28.5312 34.9794Z" fill="white"/>
<path d="M29.0703 35.9931C29.0703 36.1428 28.9569 36.2643 28.8168 36.2643C28.6782 36.2643 28.5643 36.1428 28.5643 35.9931C28.5643 35.8422 28.6777 35.7207 28.8168 35.7207C28.9564 35.7207 29.0703 35.8422 29.0703 35.9931Z" fill="white"/>
<path d="M29.7621 36.2656C29.9022 36.2656 30.0156 36.3871 30.0156 36.538C30.0156 36.6878 29.9022 36.8093 29.7621 36.8093C29.622 36.8093 29.5096 36.6878 29.5096 36.538C29.5101 36.3871 29.6225 36.2656 29.7621 36.2656Z" fill="white"/>
<path d="M30.723 36.1035C30.8631 36.1035 30.9766 36.225 30.9766 36.3748C30.9766 36.5257 30.8631 36.6471 30.723 36.6471C30.583 36.6471 30.4705 36.5257 30.4705 36.3748C30.471 36.2256 30.583 36.1035 30.723 36.1035Z" fill="white"/>
<path d="M31.3012 35.8932C31.1626 35.8932 31.0487 35.7718 31.0487 35.6209C31.0487 35.4711 31.1621 35.3496 31.3012 35.3496C31.4412 35.3496 31.5547 35.4711 31.5547 35.6209C31.5547 35.7712 31.4407 35.8932 31.3012 35.8932Z" fill="white"/>
<path d="M30.5529 34.1591C30.4832 34.1691 30.4189 34.1119 30.4084 34.0337C30.3993 33.9538 30.4485 33.8806 30.5183 33.8701C30.5896 33.8612 30.6538 33.9172 30.6629 33.9965C30.6724 34.077 30.6232 34.1491 30.5529 34.1591Z" fill="white"/>
<path d="M30.7402 34.6412C30.6704 34.6511 30.6062 34.594 30.5966 34.5147C30.5876 34.4348 30.6368 34.3627 30.7066 34.3527C30.7763 34.3427 30.8406 34.3998 30.8501 34.4792C30.8607 34.5574 30.8115 34.6312 30.7402 34.6412Z" fill="white"/>
<path d="M30.0711 33.5879C30.1444 33.5879 30.2031 33.6511 30.2031 33.7299C30.2031 33.8087 30.1449 33.8719 30.0711 33.8719C29.9988 33.8719 29.9406 33.8087 29.9406 33.7299C29.9401 33.6517 29.9988 33.5879 30.0711 33.5879Z" fill="white"/>
<path d="M29.5398 33.9606C29.4676 33.9606 29.4093 33.8974 29.4093 33.8186C29.4093 33.7415 29.4681 33.6777 29.5398 33.6777C29.6131 33.6777 29.6719 33.741 29.6719 33.8186C29.6719 33.8974 29.6131 33.9606 29.5398 33.9606Z" fill="white"/>
<path d="M29.0656 34.1772C29.0656 34.0984 29.1243 34.0352 29.1976 34.0352C29.2699 34.0352 29.3281 34.0984 29.3281 34.1772C29.3281 34.2559 29.2694 34.3192 29.1976 34.3192C29.1243 34.3192 29.0656 34.2559 29.0656 34.1772Z" fill="white"/>
<path d="M29.0633 34.627C29.1356 34.627 29.1953 34.6902 29.1953 34.7679C29.1953 34.8466 29.1356 34.9099 29.0633 34.9099C28.99 34.9099 28.9313 34.8466 28.9313 34.7679C28.9313 34.6902 28.99 34.627 29.0633 34.627Z" fill="white"/>
<path d="M29.3055 35.1289C29.3788 35.1289 29.4375 35.1921 29.4375 35.2709C29.4375 35.348 29.3793 35.4118 29.3055 35.4118C29.2332 35.4118 29.1749 35.3486 29.1749 35.2709C29.1744 35.1921 29.2332 35.1289 29.3055 35.1289Z" fill="white"/>
<path d="M29.6578 35.5522C29.6578 35.4734 29.7176 35.4102 29.7898 35.4102C29.8621 35.4102 29.9219 35.4734 29.9219 35.5522C29.9219 35.6293 29.8621 35.6931 29.7898 35.6931C29.7171 35.6925 29.6578 35.6293 29.6578 35.5522Z" fill="white"/>
<path d="M30.282 35.3281C30.3543 35.3281 30.4141 35.3914 30.4141 35.469C30.4141 35.5478 30.3543 35.611 30.282 35.611C30.2097 35.611 30.15 35.5478 30.15 35.469C30.15 35.3914 30.2097 35.3281 30.282 35.3281Z" fill="white"/>
<path d="M30.5094 35.101C30.5094 35.0222 30.5691 34.959 30.6414 34.959C30.7137 34.959 30.7734 35.0222 30.7734 35.101C30.7734 35.1781 30.7137 35.2419 30.6414 35.2419C30.5691 35.2419 30.5094 35.1781 30.5094 35.101Z" fill="white"/>
<path d="M31.2898 34.5427C31.2898 34.393 31.4033 34.2715 31.5434 34.2715C31.6834 34.2715 31.7969 34.393 31.7969 34.5427C31.7969 34.6936 31.6834 34.8151 31.5434 34.8151C31.4033 34.8151 31.2898 34.6936 31.2898 34.5427Z" fill="white"/>
<path d="M101.031 25.5034L100.929 36.2224L95.4504 36.2728V24.8077L99.9656 24.7988L101.031 25.5034ZM97.6975 33.1217H98.7279V32.7303H97.6975V33.1217ZM98.6943 29.4534L97.7672 29.4268C97.7386 29.4506 97.6272 29.5499 97.6127 29.6951C97.6021 29.7988 97.6423 29.9063 97.7341 30.0155C98.1354 30.0372 98.6281 30.0183 98.6943 30.0144C98.7274 29.9917 98.897 29.8675 98.895 29.7167C98.895 29.6242 98.8273 29.5355 98.6943 29.4534Z" fill="white"/>
<path d="M108.512 35.051C108.818 34.5254 109.01 33.93 109.147 33.3274C109.279 32.7209 109.352 32.1017 109.383 31.4797C109.413 30.8893 109.411 30.3005 109.365 29.709L112.19 29.7456C112.163 30.4912 112.226 31.1637 112.298 31.3439C112.39 31.5806 112.418 33.1927 112.204 33.6207C111.99 34.0498 112.418 34.73 110.933 35.4546C109.673 36.0688 107.962 36.1509 107.471 36.1614C107.894 35.8997 108.254 35.5095 108.512 35.051Z" fill="white"/>
<path d="M37.617 36.932C37.617 36.932 37.6596 36.9902 37.6456 37.0284C37.5412 37.3123 37.4173 37.4486 37.3029 37.2701C37.1885 37.0905 36.7596 37.1853 36.7596 37.1853C36.7596 37.1853 35.8154 38.9405 32.887 39.0813C32.0903 39.6601 31.1325 39.9993 30.1021 39.9993C28.2157 39.9993 26.5731 38.8684 25.7182 37.197L25.6244 37.2297C25.6244 37.2297 25.6244 37.2297 25.2521 37.2208C25.2672 37.8517 24.7881 38.1793 24.6812 38.2303C24.5748 38.2808 24.3395 37.0539 24.3395 37.0539C24.3395 37.0539 23.5328 37.0123 23.2207 36.9691C22.9092 36.9275 22.8941 36.5056 22.8941 36.5056L22.3232 36.4918C22.3232 36.4918 22.2073 37.61 22.1421 37.9393C22.0769 38.2686 21.9349 38.6699 21.5842 38.599C21.2345 38.5269 21.378 36.5223 21.378 36.5223C21.378 36.5223 20.3395 36.4386 17.5169 36.2462C14.6944 36.0538 13.9343 36.27 11.9977 36.1032C10.0607 35.9346 6.5804 35.2356 6.06114 35.067C5.69791 34.9506 5.08132 35.0315 4.50938 35.0227L4.46021 24.9878L37.5744 24.9219L37.617 36.932ZM19.9642 34.1118C19.9642 34.1118 19.9748 34.0281 19.9883 33.8773L13.9117 33.9621C17.0042 34.0863 19.9642 34.1118 19.9642 34.1118ZM11.8653 33.8635L19.9998 33.7509C20.0089 33.6456 20.0194 33.522 20.0294 33.3801H7.45385C8.24603 33.6001 9.95583 33.7543 11.8653 33.8635ZM7.11821 33.2531H20.0375C20.0455 33.1289 20.0525 32.9936 20.059 32.8506H6.71786C6.83275 33.0291 6.9657 33.1666 7.11821 33.2531ZM6.64461 32.7237H20.0651C20.0706 32.5884 20.0756 32.4448 20.0776 32.2968H6.45899C6.51417 32.4526 6.57588 32.5956 6.64461 32.7237ZM18.6713 26.3117L6.1083 26.3511C6.1083 26.3511 6.09776 26.4725 6.08422 26.6826L18.9337 26.6177C18.8525 26.508 18.7642 26.4054 18.6713 26.3117ZM19.0235 26.7436L6.07769 26.8095C6.06966 26.9465 6.06063 27.1095 6.0526 27.2946C7.83715 27.2797 17.5601 27.1982 19.2794 27.1843C19.2011 27.0285 19.1163 26.8816 19.0235 26.7436ZM19.3396 27.3096C17.7959 27.3223 7.791 27.4072 6.0476 27.421C6.04408 27.5136 6.04056 27.6112 6.03856 27.711H19.5057C19.4555 27.5735 19.3993 27.4388 19.3396 27.3096ZM19.5518 27.8379H6.03505C6.03054 28.0242 6.02702 28.2204 6.02601 28.4244L19.6903 28.2903C19.6481 28.1356 19.602 27.9848 19.5518 27.8379ZM19.7234 28.4167L6.02551 28.5508C6.02551 28.6495 6.02551 28.751 6.02652 28.8524H19.8227C19.7936 28.7055 19.7605 28.5597 19.7234 28.4167ZM19.8473 28.9788H6.02953C6.03204 29.1446 6.03655 29.3131 6.04308 29.4839L19.914 29.3608C19.8935 29.2333 19.8714 29.1058 19.8473 28.9788ZM19.9321 29.4877L6.0476 29.6108C6.05462 29.755 6.06265 29.9008 6.07168 30.0466L19.9893 29.9479C19.9722 29.7943 19.9542 29.6413 19.9321 29.4877ZM20.0023 30.0743L6.08121 30.1719C6.09174 30.3049 6.10278 30.4363 6.11682 30.5682L20.039 30.5122C20.0284 30.367 20.0169 30.2212 20.0023 30.0743ZM20.048 30.6392L6.13037 30.6946C6.14743 30.8465 6.16699 30.9973 6.18907 31.1431L20.0701 31.0988C20.0651 30.948 20.057 30.7939 20.048 30.6392ZM20.0741 31.2257L6.20914 31.2701C6.23071 31.4004 6.25379 31.5273 6.28038 31.6498L20.0811 31.5611C20.0801 31.4508 20.0776 31.3394 20.0741 31.2257ZM20.0821 31.6875L6.30898 31.7762C6.34109 31.9143 6.37771 32.0445 6.41684 32.1698H20.0801C20.0836 32.0146 20.0836 31.8538 20.0821 31.6875ZM29.8387 31.432C28.2673 31.432 26.9895 32.8794 26.9895 34.6573C26.9895 36.4352 28.2673 37.8827 29.8387 37.8827C31.411 37.8827 32.6888 36.4352 32.6888 34.6573C32.6888 32.8794 31.411 31.432 29.8387 31.432Z" fill="white"/>
<path d="M29.8424 37.7585C28.3343 37.7585 27.1081 36.3681 27.1081 34.6595C27.1081 32.9509 28.3343 31.5605 29.8424 31.5605C31.3505 31.5605 32.5781 32.9509 32.5781 34.6595C32.5781 36.3681 31.3505 37.7585 29.8424 37.7585ZM31.9525 35.6108C31.9053 35.2882 32.0112 35.0271 32.105 34.7976C32.2274 34.4938 32.0915 34.144 31.9008 33.9693C31.7769 33.8568 31.793 33.7526 31.809 33.6528C31.8261 33.5402 31.8446 33.4122 31.7047 33.1793C31.4603 32.7752 31.2637 32.7514 31.055 32.7247L30.9978 32.717C30.8443 32.6943 30.8167 32.5817 30.7961 32.4913C30.7755 32.4087 30.7595 32.3367 30.6621 32.2851C30.4213 32.1559 30.1519 32.162 29.8383 32.304C29.6552 32.386 29.5438 32.3433 29.436 32.3012C29.3226 32.258 29.2157 32.2175 28.998 32.304C28.7918 32.386 28.716 32.5385 28.6428 32.6854C28.5635 32.8423 28.4823 33.0047 28.2565 33.0513C28.0673 33.0895 27.9013 33.2187 27.812 33.3972C27.7638 33.4937 27.7458 33.5935 27.7673 33.6528L27.7834 33.6982C27.8501 33.8779 27.951 34.1478 27.679 34.4705C27.5325 34.6429 27.5275 34.853 27.5381 34.9633C27.5531 35.128 27.6158 35.2572 27.67 35.3004C27.8406 35.4346 27.9464 35.597 27.9464 35.9828C27.9464 36.2933 28.0152 36.6209 28.5309 36.7163C28.6283 36.7351 28.705 36.7468 28.7672 36.7556C29.0572 36.7989 29.0707 36.8089 29.2554 37.1293C29.3206 37.2396 29.3918 37.3028 29.4741 37.3206C29.6231 37.3549 29.8052 37.233 29.9648 37.1104C30.0772 37.0245 30.1594 37.0001 30.2422 37.0001C30.2879 37.0001 30.3325 37.0079 30.3832 37.0151C30.4946 37.0339 30.633 37.0556 30.8739 37.014C31.1638 36.9635 31.219 36.805 31.2832 36.6226C31.3289 36.4923 31.3816 36.3426 31.5296 36.2451C31.8722 36.02 31.9866 35.8476 31.9525 35.6108Z" fill="white"/>
<path d="M0.302774 29.0378C0.302774 29.0378 0.302774 29.0378 0.327859 28.4778C-0.329868 27.8763 0.201932 27.261 0.201932 27.261C0.201932 27.261 0.201932 27.261 0.201932 26.701C-0.0890533 25.9465 0.201932 25.498 0.201932 25.498C0.201932 25.498 0.206446 25.284 0.21347 24.9043L4.20198 24.9475V24.9869H4.23308L4.28125 35.014C4.1187 35.0023 3.96367 34.9813 3.82269 34.9402C3.13988 34.744 3.01245 34.591 1.44213 34.1425C-0.126682 33.6957 0.265146 32.4505 0.214475 31.849C0.164305 31.2475 0.404621 30.87 0.404621 30.87C0.404621 30.87 0.404621 30.87 0.404621 30.2823C0.0117902 29.9048 0.302774 29.0378 0.302774 29.0378Z" fill="white"/>
<path d="M58.1094 36.1905L41.5031 36.1412L40.0432 36.1639C39.9424 36.4084 39.698 36.8718 39.2962 36.8402C38.8793 36.8075 38.1914 36.7693 37.8488 36.8818L37.8061 24.9233L58.0923 24.8828L58.1094 36.1905ZM48.6634 32.4168H47.21L47.2009 33.8743H48.6634V32.4168Z" fill="white"/>
<path d="M87.2955 31.4434C88.8036 31.4434 90.0312 32.8337 90.0312 34.5423C90.0312 36.2509 88.8036 37.6413 87.2955 37.6413C85.7874 37.6413 84.5597 36.2509 84.5597 34.5423C84.5597 32.8337 85.7874 31.4434 87.2955 31.4434ZM85.1608 33.3416C85.1126 33.438 85.0955 33.5378 85.1161 33.5971L85.1332 33.6437C85.1999 33.8222 85.2992 34.0933 85.0278 34.4148C84.8823 34.5873 84.8778 34.7974 84.8868 34.9077C84.9019 35.0723 84.9646 35.2026 85.0198 35.2447C85.1894 35.38 85.2947 35.5413 85.2947 35.9288C85.2947 36.2376 85.3644 36.5669 85.8802 36.6623C85.9765 36.68 86.0533 36.6917 86.1165 36.7005C86.2038 36.7133 86.2655 36.7233 86.3147 36.741C86.3493 36.751 86.3764 36.7665 86.403 36.7865C86.858 37.3625 87.4159 36.9716 87.4791 36.9628C87.5182 36.95 87.5534 36.945 87.5905 36.945C87.5915 36.945 87.5915 36.945 87.5915 36.945C87.6371 36.945 87.6818 36.9528 87.7325 36.9617C87.8438 36.9794 87.9823 37.0021 88.2216 36.9589C88.5116 36.9084 88.5678 36.751 88.6305 36.5686C88.6777 36.4367 88.7288 36.2886 88.8778 36.1911C89.2215 35.9643 89.3364 35.7919 89.3018 35.5552C89.2546 35.2337 89.3605 34.9725 89.4533 34.7419C89.5772 34.4381 89.4408 34.0883 89.2491 33.9137C89.1267 33.8022 89.1427 33.6969 89.1573 33.5971C89.1743 33.4846 89.1939 33.3565 89.0529 33.1237C88.8101 32.7212 88.6129 32.6957 88.4032 32.6691L88.346 32.6613C88.1925 32.6397 88.1659 32.5272 88.1444 32.4357C88.1248 32.3537 88.1077 32.2827 88.0114 32.2306C87.7696 32.1014 87.5002 32.1064 87.1876 32.2483C87.004 32.3304 86.8921 32.2877 86.7843 32.2472C86.6719 32.2029 86.5655 32.1624 86.3463 32.25C86.1411 32.3309 86.0643 32.4828 85.9911 32.6297C85.9133 32.7866 85.8315 32.9502 85.6048 32.9956C85.4171 33.035 85.2511 33.1642 85.1608 33.3416Z" fill="white"/>
<path d="M95.2266 24.8105V36.2779L93.15 36.2967L92.8003 37.0224H91.5406C90.6902 38.7155 89.0376 39.8631 87.1362 39.8631C85.2362 39.8631 83.5831 38.7155 82.7333 37.0235C82.4423 37.0246 81.483 37.0313 81.3887 37.0235C81.2788 37.0136 81.2522 36.2247 81.2522 36.2247C81.2522 36.2247 79.6408 36.2335 79.0553 36.2286C79.0463 36.1576 79.0704 24.8438 79.0704 24.8438L95.2266 24.8105ZM87.2842 37.7686C88.8555 37.7686 90.1343 36.3211 90.1343 34.5432C90.1343 32.7653 88.8555 31.3179 87.2842 31.3179C85.7128 31.3179 84.434 32.7653 84.434 34.5432C84.434 36.3211 85.7133 37.7686 87.2842 37.7686Z" fill="white"/>
<path d="M78.8358 36.1442V36.2301C78.8358 36.2301 59.691 36.2185 58.367 36.2008L58.3243 24.8803L78.8594 24.8398L78.8358 36.1442ZM69.3105 32.3994H67.8712V33.9012H69.3105V32.3994Z" fill="white"/>
<path d="M4.1981 24.696L0.215607 24.6527C0.256746 22.5062 0.375155 16.7329 0.498573 12.5828C0.653097 7.39321 1.78693 6.03664 2.13963 5.44678C2.49132 4.85637 2.18228 3.67609 2.76977 3.43937C3.35676 3.20376 24.3995 3.08623 24.3995 3.08623L24.6127 2.80239L32.5812 2.81514L32.9444 3.06184C32.9444 3.06184 59.7693 3.2592 60.7396 3.08069C61.7094 2.90218 67.6916 0.892552 68.7025 0.534977C69.7135 0.17851 82.3648 0 89.5195 0C96.6743 0 103.864 1.86438 105.985 3.62953C108.108 5.39467 108.644 7.70089 108.644 7.70089C108.644 7.70089 110.07 7.44865 112.329 7.96533C114.587 8.48202 115.532 10.8858 115.532 11.0682C115.532 11.2495 115.532 11.4302 115.644 11.5749C115.756 11.7179 116.016 14.0774 115.999 14.4787C115.981 14.8801 115.592 15.2438 115.238 15.1385C114.883 15.0331 114.477 12.1576 114.433 11.8798C114.39 11.6026 114.122 11.4302 114.348 11.3925C114.572 11.3543 114.572 11.087 114.312 10.9252C114.053 10.7616 113.828 10.6186 113.56 10.1119C113.292 9.60685 111.727 9.58634 110.957 9.61572C112.116 10.5704 112.54 11.9369 112.572 12.1853C112.604 12.4347 112.436 12.3006 112.436 12.3006L112.419 12.5489C112.419 12.5489 112.643 12.9986 112.548 14.5458C112.481 15.6352 112.253 15.8248 112.122 15.8414C112.117 15.8453 112.111 15.8475 112.106 15.8492C112.082 15.8542 111.57 15.9645 111.367 15.9645H111.349C111.291 15.9617 111.195 15.9584 110.999 14.2204C110.902 13.3683 110.828 12.4891 110.825 12.4031C110.824 12.3865 110.828 12.3627 110.849 12.3383C110.957 12.213 111.597 12.1991 111.797 12.1975L111.77 12.0999L111.382 12.0899C111.382 12.0899 110.794 11.8039 110.664 10.8664C110.343 10.9728 109.964 10.8143 109.738 10.6918C109.874 11.3171 110.154 12.5157 110.618 14.1733C111.3 16.6148 111.897 22.4718 111.897 22.4718C112.077 23.3533 112 25.7099 112.043 27.2472C112.27 27.5726 112.364 28.0311 112.244 29.0212C112.22 29.2175 112.195 29.4914 112.195 29.4914L109.279 29.5296L109.19 29.5307L109.201 29.6294C109.264 30.2359 109.282 30.8568 109.265 31.4722C109.248 32.0875 109.187 32.7029 109.07 33.306C108.949 33.9064 108.771 34.4991 108.479 35.0257C108.231 35.4903 107.882 35.8883 107.46 36.1617C107.379 36.1628 107.334 36.1628 107.334 36.1628L101.175 36.2199L101.278 25.3618L100.045 24.5463H100.013L4.45697 24.7348H4.42738V16.6935H4.1981V24.696ZM110.911 12.3993C110.922 12.6437 111.2 15.6845 111.36 15.8691C111.504 15.873 111.875 15.8009 112.025 15.7705C112.006 15.5803 111.944 14.9234 111.901 14.1822C111.856 13.4326 111.819 12.5395 111.808 12.2928C111.4 12.2945 110.949 12.3383 110.911 12.3993ZM109.23 12.4957C109.465 13.9194 110.309 21.3885 110.393 21.8176C110.477 22.2456 111.294 22.1242 111.709 22.1242C111.72 22.1242 111.73 22.127 111.741 22.132C111.579 20.8403 110.996 16.3814 110.399 14.2487C109.697 11.7362 109.414 10.2682 109.411 10.2533L109.466 10.2405L109.313 9.55641H108.427C108.427 9.55641 108.993 11.0721 109.23 12.4957ZM101.323 21.5792L105.043 21.5005L106.473 20.5154L106.426 19.7797L101.323 19.8191V21.5792ZM101.323 19.2098H106.381C106.381 19.2098 106.033 15.654 105.884 15.0204C105.772 14.5442 105.067 13.3705 104.019 13.2968C103.073 13.2319 101.323 13.2968 101.323 13.2968V19.2098ZM101.323 12.6144C101.323 12.6144 103.934 12.4891 104.857 12.9198C105.781 13.3517 106.43 14.0253 106.611 16.6264C106.791 19.2265 107.049 21.5005 107.049 21.5005L108.81 21.4523C108.81 21.4523 107.856 12.3671 107.24 11.2146C105.755 11.2146 101.798 11.0943 101.798 11.0943L101.323 11.6669V12.6144ZM91.122 15.5021C91.122 15.5021 92.1454 15.5542 93.2286 15.0337C94.3118 14.5142 98.3605 10.2477 98.3605 10.2477L98.2892 6.81444C98.2892 6.81444 93.8402 6.76233 91.8394 6.81444C92.016 7.46417 91.4165 9.4677 91.2388 10.1174C91.0623 10.7683 90.7562 11.0798 90.8515 11.6132C90.9454 12.1465 90.8159 13.6039 90.7562 13.9815C90.698 14.3573 91.122 15.5021 91.122 15.5021ZM74.5383 12.1182C74.7124 12.07 75.0781 12.2817 75.2181 12.407C75.3581 12.5312 75.6445 12.3194 76.2105 12.1753C76.7764 12.0312 76.5852 13.1959 76.7066 13.533C76.828 13.8684 77.1251 15.6452 77.1251 15.6452H81.8089C81.8089 15.6452 81.7653 14.7055 81.7562 14.6002C81.7472 14.4937 81.1647 14.3596 81.1291 13.0994C81.0945 11.8393 82.5835 12.0511 82.5479 12.7818C83.2618 12.0511 83.7846 12.5706 83.8187 13.1189C83.8543 13.6671 83.8714 15.6452 83.8714 15.6452H88.2492L88.8257 14.2531C88.8257 14.2531 88.8257 14.2531 88.7434 11.5483C87.5664 9.20659 87.4836 6.86655 87.4836 6.86655L75.6265 6.99073C75.6265 6.99073 75.4524 7.46196 75.2176 8.85733C74.9828 10.2516 74.3993 11.637 74.3993 11.637C74.3993 11.637 74.3652 12.1664 74.5383 12.1182ZM58.3881 12.4198C58.5612 12.7413 58.3791 13.2946 58.5522 13.4964C58.7252 13.6976 58.9886 13.9598 58.9164 14.3119C59.0709 14.3523 59.2626 14.0003 59.1983 13.6178C59.1341 13.2353 59.3805 12.8123 59.69 12.692C59.9996 12.5706 59.9273 12.0578 60.2183 12.1576C60.5093 12.259 60.9653 12.4907 61.0285 12.8921C61.0928 13.2946 61.1846 14.8247 61.3928 14.8347C61.6025 14.8446 61.7846 14.4826 61.8122 13.7985C61.8398 13.1133 61.9025 12.6005 62.3942 12.7003C62.8868 12.8017 62.8868 13.1843 63.2962 13.355C63.7066 13.5258 63.8245 13.436 63.9073 13.8778C63.9886 14.3213 64.1707 15.3874 64.6167 15.3281C65.0637 15.2671 66.1238 15.1961 66.1293 14.9378C66.1363 14.6794 65.9653 12.4153 66.464 12.3732C66.9626 12.3316 66.8493 13.0695 67.202 12.7491C67.5551 12.4286 68.1165 11.9269 68.2871 13.0074C68.4567 14.0879 68.3809 14.4638 68.5395 14.9311C68.6965 15.3974 68.7723 15.6441 68.7723 15.6441H71.0655C71.0655 15.6441 71.2923 14.9843 71.4473 14.8236C71.6034 14.6628 71.7764 14.5625 71.5758 14.16C71.3751 13.7575 71.6284 11.9552 71.6661 11.6642C71.7027 11.3731 71.8848 11.4529 71.6109 10.7688C71.338 10.0836 70.755 7.57893 70.6366 7.06447C69.7712 7.11491 59.6449 7.16592 59.6449 7.16592C59.6449 7.16592 59.0709 10.2444 58.6696 11.1004C58.2702 11.9563 58.215 12.0977 58.3881 12.4198ZM39.6813 11.484C39.7339 11.8161 39.7179 12.5944 39.7179 12.5944C39.7179 12.5944 40.354 12.4436 40.4985 12.6526C40.642 12.8627 40.791 12.9326 40.9636 12.621C41.1357 12.3106 42.1521 12.2019 42.4742 12.3993C42.7953 12.5955 42.8706 12.7031 42.7953 13.1538C42.721 13.6045 42.5831 13.9349 42.7898 14.2454C42.997 14.5569 43.5769 15.7943 43.5769 15.7943H45.663C45.663 15.7943 45.1839 13.9898 45.0098 13.1299C44.8367 12.2701 46.4421 11.7318 46.7266 12.6765C47.0121 13.6211 47.0808 14.466 47.0808 14.466L51.0222 14.5054C51.0222 14.5054 51.2444 15.2565 51.1401 15.7943C51.6272 15.8032 52.7731 15.7943 52.7731 15.7943C52.7731 15.7943 52.3065 14.5669 52.2689 13.691C52.2313 12.8134 52.5599 12.0927 53.0515 12.2712C53.5422 12.4497 53.6611 12.3727 53.8011 12.6826C53.942 12.993 53.9205 15.0725 54.09 15.2127C54.09 15.2127 54.3685 14.6489 54.5326 14.4998C54.6976 14.3501 54.6379 14.0364 54.5326 13.5879C54.4282 13.141 54.4387 12.2036 54.6359 11.6908C54.8331 11.1769 53.9335 9.25316 53.7604 8.5491C53.5884 7.84503 53.5507 7.33944 53.5507 7.33944L40.8522 7.3472C40.8522 7.3472 40.2893 9.5431 39.9973 10.4057C39.7028 11.2683 39.6286 11.1519 39.6813 11.484ZM22.9406 14.5054C23.1412 14.7016 23.3725 15.4511 23.6043 15.7416C23.8356 16.0316 24.1291 15.8353 24.1291 15.8353C24.1291 15.8353 23.7588 14.4638 23.5276 13.6189C23.2963 12.7757 23.4117 12.2041 23.7282 11.8382C24.0433 11.4723 24.9303 12.2562 25.3166 12.3322C25.7019 12.4092 25.8875 12.6399 25.9021 13.202C25.9181 13.7641 26.034 14.0541 26.034 14.0541C26.034 14.0541 26.01 13.3966 26.0947 12.9714C26.1795 12.5456 26.773 12.5118 26.9587 12.8272C27.1433 13.1427 27.2828 13.1338 27.5913 13.1676C27.8994 13.202 28.1 13.5845 28.0614 14.42C28.0238 15.2543 28.3238 15.9445 28.3238 15.9445L30.5599 15.9029C30.5599 15.9029 30.2137 14.7609 30.1976 13.4653C30.1826 12.1709 31.1534 11.9064 31.6014 12.1027C32.0484 12.2978 31.9947 12.2219 32.2717 12.0938C32.5491 11.9657 33.4441 12.2723 34.0999 12.2723C34.7556 12.2723 35.1028 12.3405 35.1404 12.7929C35.1795 13.2436 35.1911 13.5779 34.5649 14.0186C34.5559 14.9317 34.7094 15.8547 34.7094 15.8547H37.1427C37.1427 15.8547 37.381 15.1102 37.5922 14.8696C37.8029 14.629 37.8511 14.3579 37.7357 13.8917C37.6198 13.4254 37.6464 11.9286 37.7828 11.5677C37.9193 11.2079 37.5847 10.99 37.4652 10.5404C37.3473 10.0919 36.7202 7.33888 36.7202 7.33888L23.959 7.40596C23.959 7.40596 23.8055 8.22423 23.6505 8.98262C23.4969 9.74101 23.2571 10.567 22.9411 10.8747C22.625 11.1813 22.9034 11.3432 23.0028 11.6752C23.1036 12.0084 23.2035 13.8052 22.9411 13.9926C22.6782 14.1822 22.7399 14.3091 22.9406 14.5054ZM14.2045 10.6058C14.2045 10.9096 14.2311 11.005 14.4669 10.9972C14.7017 10.9895 14.6961 11.6281 14.5908 11.9962C14.4864 12.366 14.4714 12.6243 14.639 13.0235C14.8065 13.4227 15.0433 14.277 15.1662 14.6761C15.2902 15.0736 16.0638 15.0736 16.0638 15.0736C16.0638 15.0736 15.3785 13.7326 15.3428 12.5268C15.3072 11.321 16.2138 11.3604 16.7672 11.6808C17.322 12.0023 17.2518 11.5062 18.0084 11.6808C18.7649 11.8571 18.8613 12.4974 18.8532 13.0712C18.8442 13.645 19.5125 14.0048 19.8376 14.15C20.1632 14.2958 20.8234 14.2764 20.8234 14.2764C20.8234 14.2764 20.8164 13.7409 20.7637 12.8428C20.711 11.9447 20.7833 11.8576 20.862 11.3077C20.9398 10.7566 20.3508 8.93328 20.0759 8.56351C19.7994 8.19374 19.5245 7.37547 19.5245 7.37547C19.5245 7.37547 16.1435 7.41982 15.4171 7.5501C14.6891 7.68038 14.1909 8.25915 14.2045 8.42491C14.217 8.594 14.2045 10.302 14.2045 10.6058ZM4.06264 21.5831C4.06264 21.5831 2.78933 21.4894 2.32075 21.6452C1.85316 21.7999 1.63793 23.7347 1.63793 23.7347L1.85316 24.0146H4.06264V21.5831Z" fill="white"/>
</svg>
