<svg width="90" height="39" viewBox="0 0 90 39" fill="none" xmlns="http://www.w3.org/2000/svg">
<path d="M74.4315 32.5792C74.4315 32.8969 74.1766 33.1545 73.8621 33.1545C73.5476 33.1545 73.2969 32.8969 73.2969 32.5792C73.2969 32.2615 73.5519 32.0039 73.8621 32.0039C74.1766 32.0082 74.4315 32.2658 74.4315 32.5792Z" fill="white"/>
<path d="M71.2891 32.5795C71.2891 33.9962 72.4322 35.1511 73.8346 35.1511C75.237 35.1511 76.3801 33.9962 76.3801 32.5795C76.3801 31.1627 75.237 30.0078 73.8346 30.0078C72.428 30.0121 71.2891 31.1627 71.2891 32.5795ZM71.4718 32.5795C71.4718 31.2657 72.53 30.1967 73.8304 30.1967C75.1307 30.1967 76.1889 31.2657 76.1889 32.5795C76.1889 33.8932 75.1307 34.9622 73.8304 34.9622C72.53 34.9665 71.4718 33.8932 71.4718 32.5795Z" fill="white"/>
<path d="M73.8518 26.666C70.622 26.666 68 29.3149 68 32.5778C68 35.845 70.622 38.4896 73.8518 38.4896C77.0815 38.4896 79.7035 35.845 79.7035 32.5778C79.7035 29.3149 77.0857 26.666 73.8518 26.666ZM73.8518 36.7122C71.591 36.7122 69.7636 34.8618 69.7636 32.5821C69.7636 30.2981 71.5952 28.452 73.8518 28.452C76.1083 28.452 77.9399 30.3024 77.9399 32.5821C77.9442 34.8618 76.1126 36.7122 73.8518 36.7122Z" fill="white"/>
<path d="M71.2371 31.5441L71.6535 30.8143C71.7555 30.634 71.696 30.4021 71.5176 30.2991C71.4963 30.2862 71.4751 30.2776 71.4581 30.2733C71.0968 30.6554 70.8249 31.1234 70.6719 31.6472C70.6889 31.6601 70.7059 31.6772 70.7271 31.6858C70.9056 31.7846 71.1351 31.7245 71.2371 31.5441ZM73.8506 29.2344C73.5786 29.2344 73.3194 29.2687 73.0644 29.3331C73.0602 29.3546 73.0559 29.3761 73.0559 29.4018C73.0559 29.6079 73.2217 29.7796 73.4299 29.7796H74.2671C74.4711 29.7796 74.641 29.6122 74.641 29.4018C74.641 29.3803 74.6368 29.3546 74.6325 29.3331C74.3818 29.2687 74.1226 29.2344 73.8506 29.2344ZM76.4641 31.5441C76.5661 31.7245 76.7956 31.7846 76.9741 31.6815C76.9954 31.6686 77.0124 31.6558 77.0293 31.6386C76.8806 31.1148 76.6044 30.6511 76.2432 30.269C76.2219 30.2776 76.2007 30.2862 76.1794 30.2948C76.0009 30.3978 75.9414 30.6297 76.0434 30.81L76.4641 31.5441ZM76.4641 33.6178L76.0477 34.3476C75.9457 34.5279 76.0052 34.7598 76.1837 34.8628C76.2049 34.8757 76.2262 34.8843 76.2474 34.8929C76.6086 34.5108 76.8806 34.0428 77.0336 33.519C77.0166 33.5061 76.9996 33.489 76.9784 33.4804C76.7956 33.3773 76.5704 33.4375 76.4641 33.6178ZM71.2371 33.6178C71.1351 33.4375 70.9056 33.3773 70.7271 33.4804C70.7059 33.4933 70.6889 33.5061 70.6719 33.5233C70.8206 34.0428 71.0968 34.5108 71.4581 34.8972C71.4793 34.8886 71.5006 34.88 71.5176 34.8671C71.696 34.7641 71.7555 34.5322 71.6535 34.3519L71.2371 33.6178ZM74.2713 35.3866H73.4341C73.2302 35.3866 73.0602 35.554 73.0602 35.7644C73.0602 35.7859 73.0644 35.8116 73.0687 35.8331C73.3194 35.8932 73.5829 35.9318 73.8549 35.9318C74.1268 35.9318 74.3861 35.8975 74.641 35.8331C74.6453 35.8116 74.6495 35.7901 74.6495 35.7644C74.641 35.554 74.4753 35.3866 74.2713 35.3866Z" fill="white"/>
<path d="M25.1218 32.8653C24.9646 33.1401 24.6204 33.2345 24.3484 33.0799C24.0764 32.9211 23.9829 32.5733 24.1359 32.2986C24.2931 32.0238 24.6374 31.9294 24.9093 32.0839C25.1813 32.2385 25.279 32.5905 25.1218 32.8653Z" fill="white"/>
<path d="M22.4045 31.3052C21.7076 32.5374 22.1368 34.1087 23.3564 34.8128C24.5761 35.5169 26.1314 35.0833 26.8284 33.8511C27.5253 32.6189 27.0961 31.0476 25.8765 30.3435C24.6568 29.6437 23.0972 30.0731 22.4045 31.3052ZM22.566 31.3997C23.2119 30.2577 24.6526 29.8584 25.783 30.511C26.9134 31.1635 27.3086 32.6189 26.6627 33.7609C26.0167 34.9029 24.5761 35.3022 23.4457 34.6496C22.3153 33.9971 21.92 32.5374 22.566 31.3997Z" fill="white"/>
<path d="M27.5159 27.4434C24.7069 25.8248 21.1329 26.8165 19.5351 29.6501C17.933 32.4879 18.9146 36.0985 21.7194 37.7128C24.5284 39.3313 28.1024 38.3439 29.7002 35.506C31.3023 32.6725 30.3249 29.0619 27.5159 27.4434ZM22.5906 36.1715C20.6272 35.0424 19.943 32.518 21.0649 30.5345C22.1826 28.551 24.6814 27.8598 26.6447 28.9932C28.6081 30.1223 29.2923 32.6468 28.1703 34.6302C27.0527 36.6094 24.5539 37.3006 22.5906 36.1715Z" fill="white"/>
<path d="M22.8522 30.3722L23.5746 29.9472C23.7531 29.8441 23.8126 29.6123 23.7106 29.432C23.6978 29.4105 23.6851 29.3933 23.6723 29.3762C23.1709 29.5264 22.7034 29.7969 22.3167 30.1747C22.3252 30.1962 22.3337 30.2176 22.3464 30.2391C22.4484 30.4151 22.6737 30.4795 22.8522 30.3722ZM26.2561 29.6724C26.0224 29.535 25.7759 29.4363 25.5252 29.3633C25.5124 29.3805 25.4954 29.3976 25.4869 29.4191C25.3849 29.5994 25.4487 29.8312 25.6272 29.9343L26.3539 30.3507C26.5323 30.4538 26.7618 30.3894 26.8638 30.209C26.8766 30.1876 26.8851 30.1661 26.8893 30.1489C26.7023 29.9686 26.4941 29.8098 26.2561 29.6724ZM27.395 32.9868C27.395 33.1971 27.565 33.3646 27.769 33.3603C27.7945 33.3603 27.8157 33.356 27.837 33.3517C27.9602 32.8236 27.956 32.2784 27.8285 31.7675C27.8072 31.7632 27.786 31.7589 27.7605 31.7632C27.5565 31.7632 27.3865 31.9349 27.3908 32.141L27.395 32.9868ZM26.3794 34.7899L25.6569 35.215C25.4784 35.318 25.4189 35.5498 25.5209 35.7301C25.5337 35.7516 25.5464 35.7688 25.5592 35.786C26.0606 35.6357 26.5281 35.3652 26.9148 34.9874C26.9063 34.966 26.8978 34.9445 26.8851 34.923C26.7831 34.747 26.5578 34.6826 26.3794 34.7899ZM21.8365 32.1754C21.8365 31.965 21.6665 31.7975 21.4625 31.8018C21.4413 31.8018 21.4158 31.8061 21.3945 31.8104C21.2713 32.3385 21.2755 32.8837 21.403 33.3946C21.4243 33.3989 21.4455 33.4032 21.471 33.3989C21.6792 33.3989 21.845 33.2272 21.8407 33.0211L21.8365 32.1754ZM23.6043 35.2278L22.8776 34.8114C22.6992 34.7084 22.4697 34.7728 22.3677 34.9531C22.3549 34.9745 22.3464 34.996 22.3422 35.0175C22.5292 35.1978 22.7417 35.3609 22.9754 35.494C23.2091 35.6314 23.4556 35.7301 23.7063 35.8031C23.7191 35.786 23.7361 35.7688 23.7446 35.7473C23.8466 35.5584 23.7828 35.3309 23.6043 35.2278Z" fill="white"/>
<path d="M1.10882 19.0903C1.10882 19.1504 1.06207 19.2019 0.998324 19.2019H0.501116C0.441621 19.2019 0.390625 19.1547 0.390625 19.0903V16.9866C0.390625 16.9265 0.441621 16.875 0.501116 16.875H0.998324C1.05782 16.875 1.10882 16.9265 1.10882 16.9866V19.0903Z" fill="white"/>
<path d="M1.16711 20.3578C1.16711 20.4179 1.12036 20.4694 1.05662 20.4694H0.321428C0.261933 20.4694 0.210938 20.4222 0.210938 20.3578V19.4905C0.210938 19.4304 0.261933 19.3789 0.321428 19.3789H1.06087C1.12036 19.3789 1.17136 19.4304 1.17136 19.4905V20.3578H1.16711Z" fill="white"/>
<path d="M1.0962 23.4008C1.0962 23.4609 1.0452 23.5081 0.985704 23.5081H0.547991C0.488496 23.5081 0.4375 23.4609 0.4375 23.4008V20.7519C0.4375 20.6918 0.488496 20.6445 0.547991 20.6445H0.985704C1.0452 20.6445 1.0962 20.6918 1.0962 20.7519V23.4008Z" fill="white"/>
<path d="M89.9738 26.9733C89.8505 26.7243 89.2598 26.3035 89.1366 26.1533C89.1876 26.003 89.1876 25.681 89.1621 25.505C89.3576 25.3805 89.3831 24.9597 89.2343 24.8567C89.3831 24.7322 89.3321 24.436 89.1621 24.2857C89.3108 23.938 89.0134 23.6632 88.9156 23.6374C88.9156 23.4142 88.7924 23.1909 88.5969 23.1909C88.5714 22.7187 88.4014 22.0962 87.9085 21.4264C87.4155 20.7567 84.7807 18.8633 83.8203 18.2408C82.8599 17.6183 81.0623 16.15 80.939 15.9783C80.7903 16.0041 80.4461 16.0298 80.1529 16.0513C79.8809 15.901 78.776 14.9823 78.5295 14.7848C78.3893 14.2868 78.1343 13.7415 77.6668 13.192C76.8509 12.2346 76.2389 12.2947 76.0689 12.372C75.3805 11.6507 69.0528 5.95359 68.4111 5.40835C67.2807 3.74258 62.9715 1.72905 61.7646 1.38129C60.5577 1.03354 57.3577 0.587047 57.1368 0.608514C56.9158 0.634273 56.7203 0.982026 56.4951 0.982026C56.2741 0.982026 56.0531 0.634272 55.8789 0.634272C55.4624 0.634272 43.1767 0.582755 42.3905 0.582755C41.3578 0.582755 35.5231 0.526942 35.3276 0.501183C35.1321 0.475423 35.0811 0.878986 34.8856 0.878986C34.6901 0.878986 34.6646 0.531235 34.4182 0.531235C33.8997 0.531235 24.695 0.514062 22.5999 0.531235C21.699 0.539822 15.35 0.612808 15.2013 0.612808C15.0525 0.612808 14.9633 0.88328 14.8145 0.88328C14.6658 0.88328 14.6658 0.672913 14.4576 0.672913C14.2493 0.672913 10.4544 0.702965 8.99252 0.672913C7.53064 0.64286 3.08126 0.612806 2.63505 1.00349C2.18883 1.39417 1.61938 4.29211 1.58963 4.68279C1.53014 5.01337 0.841696 10.7148 0.811948 11.4103C0.782201 12.1058 0.663211 16.0856 0.603715 16.721C0.752453 16.721 1.16892 16.6309 1.29216 16.8713C1.41115 17.1117 1.3814 23.4786 1.26241 23.5988C1.14342 23.719 0.875693 23.719 0.637713 23.6889C0.637713 23.9294 0.637713 25.7111 0.637713 26.0717C0.637713 26.4323 0.459227 26.2821 0.340237 26.4323C0.221247 26.5826 0.280742 27.4284 0.31049 27.819C0.335988 28.1625 0.161752 28.39 0.0427621 28.6348C-0.076228 28.8752 0.0725096 30.4765 0.250995 30.6569C0.42948 30.8372 1.53439 30.717 2.28233 30.717C3.03026 30.717 3.38723 30.6569 3.59547 30.4465C4.84911 30.4465 8.94152 31.2622 10.4331 31.4726C11.9248 31.6829 16.8841 31.8332 18.108 31.8032C18.346 29.6608 19.9439 27.2781 21.3632 26.5568C22.9144 25.7669 25.2432 25.6638 27.1853 26.3851C29.1273 27.1107 29.9645 28.7593 30.5 29.8454C30.9674 30.79 31.5369 32.4343 31.8726 33.5462C33.0753 33.5462 49.4534 33.5462 52.0542 33.5591C53.1123 33.5634 59.4868 33.5591 61.2377 33.5333C62.9843 33.5076 65.9378 33.5591 66.112 33.9068C66.2778 32.4729 67.7014 29.3002 68.6958 27.9135C69.4267 26.896 71.0076 25.1529 73.8166 25.0799C77.807 24.9726 79.6046 27.8534 80.3186 29.4805C80.7818 30.5367 80.6628 32.1681 80.5141 32.9366C80.8328 32.6618 82.0907 32.6876 82.6304 32.5888C83.1701 32.4901 83.5398 32.1423 84.1093 31.9405C84.4832 31.8075 85.9961 31.6572 87.2285 31.6186C87.6152 30.9917 87.9765 29.9914 88.3334 29.6565C88.6904 29.326 89.1706 29.7467 89.4766 29.3002C89.7613 28.8666 90.097 27.2223 89.9738 26.9733ZM13.3484 13.9948C13.3484 14.6045 12.8597 15.0939 12.2605 15.0939H4.4029C3.79945 15.0939 3.31499 14.6002 3.31499 13.9948V6.57611C3.31499 5.96647 3.8037 5.47704 4.4029 5.47704H12.2562C12.8597 5.47704 13.3442 5.97076 13.3442 6.57611V13.9948H13.3484ZM33.1688 14.115C33.1688 14.7247 32.68 15.2141 32.0808 15.2141H15.8387C15.2352 15.2141 14.7508 14.7204 14.7508 14.115V6.57182C14.7508 5.96218 15.2395 5.47275 15.8387 5.47275H32.0808C32.6843 5.47275 33.1688 5.96647 33.1688 6.57182V14.115ZM52.3134 25.7068C52.3134 26.0631 52.0244 26.355 51.6717 26.355H49.2962C48.9434 26.355 48.6545 26.0631 48.6545 25.7068V24.3029C48.6545 23.9465 48.9434 23.6546 49.2962 23.6546H51.6717C52.0244 23.6546 52.3134 23.9465 52.3134 24.3029V25.7068ZM54.009 14.115C54.009 14.7247 53.5203 15.2141 52.9211 15.2141H36.679C36.0755 15.2141 35.5911 14.7204 35.5911 14.115V6.57182C35.5911 5.96218 36.0798 5.47275 36.679 5.47275H52.9211C53.5246 5.47275 54.009 5.96647 54.009 6.57182V14.115ZM56.9073 18.3911H56.5673C56.3123 18.3911 56.1084 18.1678 56.1084 17.8974V16.6867C56.1084 16.4119 56.3123 16.193 56.5673 16.193H56.9073V18.3911ZM58.5646 20.4948C58.3607 20.4948 58.1907 20.3273 58.1907 20.117C58.1907 19.9109 58.3564 19.7392 58.5646 19.7392C58.7729 19.7392 58.9386 19.9066 58.9386 20.117C58.9344 20.3273 58.7686 20.4948 58.5646 20.4948ZM70.4594 12.8958C70.1917 13.2263 69.8942 14.4928 69.8007 16.4849C68.6066 16.515 65.7423 16.3046 64.4887 16.1844C63.235 16.0642 59.4146 15.8538 58.9939 15.2484C58.5774 14.6431 58.4074 11.5391 58.3479 10.5731C58.2884 9.60713 58.0079 6.19831 58.3692 5.89778C58.7899 5.54144 60.817 5.65736 62.3978 5.86773C63.9787 6.0781 64.8159 6.22836 65.4151 6.53318C66.01 6.8337 68.7893 9.09624 69.5967 9.91196C70.4042 10.7277 71.747 12.445 72.104 12.9301C71.7768 12.7455 70.7314 12.5652 70.4594 12.8958ZM79.4517 21.1345H78.8865C78.7207 21.1345 78.589 21.0014 78.589 20.8339C78.589 20.6665 78.7207 20.5334 78.8865 20.5334H79.4517C79.6174 20.5334 79.7491 20.6665 79.7491 20.8339C79.7534 21.0014 79.6174 21.1345 79.4517 21.1345ZM87.5982 26.5268C87.3008 26.5568 86.5826 26.5869 86.2553 26.4066C85.9281 26.2262 85.8091 25.681 85.6604 25.1401C85.5117 24.5948 85.4862 24.0281 85.8984 23.9337C87.0628 23.6632 87.271 24.539 87.4495 24.9597C87.628 25.3805 87.6875 26.1962 87.5982 26.5268ZM51.676 23.8521H49.3004C49.0539 23.8521 48.85 24.0539 48.85 24.3072V25.7111C48.85 25.9601 49.0497 26.1661 49.3004 26.1661H51.676C51.9224 26.1661 52.1264 25.9644 52.1264 25.7111V24.3072C52.1222 24.0539 51.9224 23.8521 51.676 23.8521Z" fill="white"/>
</svg>
