<svg width="86" height="32" viewBox="0 0 86 32" fill="none" xmlns="http://www.w3.org/2000/svg">
<path d="M85.5 21.8986C85.5 21.2197 84.7142 20.8799 84.7142 20.8799C84.7142 20.8799 84.8642 18.8801 84.4823 17.5969C84.1011 16.3136 83.7643 14.933 82.141 13.9821C80.5176 13.0313 75.2074 10.9298 73.2259 9.63492C71.2444 8.34003 62.6777 1.39106 60.1111 0.838887C57.5445 0.286709 5.74456 -0.0505959 4.74961 0.00620958C3.75571 0.0633679 3.45321 0.675174 3.16889 1.99299C2.88456 3.31151 2.3453 5.75733 2.3453 5.75733L1.8431 5.72839L1.79624 6.99928L2.12742 7.01834C2.12742 7.01834 0.906556 10.6818 1.07372 18.3928C0.854798 18.4077 0.82717 18.5368 0.82717 18.7848C0.82717 19.0336 0.682036 19.7876 0.936981 19.8331C1.19193 19.8793 1.37448 19.8613 1.37448 19.8613L1.57941 24.2339C1.57941 24.2339 0.483746 24.2082 0.500183 25.0119C0.517319 25.8157 0.46661 26.4282 1.41715 26.6529C2.36698 26.8777 5.14165 27.2185 8.66471 27.1681C9.10081 29.3789 9.02597 29.2533 9.39982 29.2533C9.77262 29.2533 9.4243 27.608 9.4243 27.608L10.1216 27.6204C10.1216 27.6204 10.8568 31.7128 14.959 31.9799C19.3143 32.2626 20.5191 29.4657 20.5191 29.4657C20.5191 29.4657 22.1565 29.0938 22.9472 27.6973L63.6178 28.0216C63.6178 28.0216 64.4455 29.1633 65.8811 29.4699C66.8603 30.901 68.3977 32.162 71.5053 31.9577C74.6136 31.7534 75.5757 29.6403 76.0828 28.1066C77.2645 27.9736 77.3316 27.8907 77.3316 27.8907C77.3316 27.8907 77.339 28.2982 77.4439 28.2752C77.5481 28.253 81.6919 27.9058 82.014 27.7552C82.3354 27.6038 84.6922 26.3968 84.8485 26.2454C85.0059 26.094 84.7215 25.8079 84.7215 25.8079C84.7215 25.8079 85.2902 25.159 85.2524 24.7057C85.2157 24.2526 85.1482 23.5283 85.2902 23.3092C85.4318 23.0908 85.5 22.5781 85.5 21.8986ZM4.24217 5.14164C4.01835 5.92457 3.29479 11.1962 3.18987 13.1876C3.08425 15.1793 3.01851 16.6262 3.01851 16.6262C3.01851 16.6262 1.51821 19.3744 1.40001 18.3392C1.40001 18.3392 1.38707 11.687 1.79414 11.0233C2.20226 10.3593 2.63661 7.25226 2.83421 5.7792C3.0318 4.30508 3.11048 3.60154 3.47909 3.80089C3.84804 3.99988 4.46599 4.35765 4.24217 5.14164ZM60.1919 2.98867C60.2682 2.80026 61.0673 3.21201 61.0673 3.21201V3.77831C60.6172 3.51192 60.115 3.17709 60.1919 2.98867ZM59.7233 4.75141L60.2779 8.90738L58.6203 11.0381L57.8352 3.88239L59.7233 4.75141ZM56.502 3.43677C56.502 3.43677 56.9528 3.84287 57.4099 3.72185C57.5229 5.03896 58.1384 10.946 58.1384 10.946C58.1384 10.946 56.5167 11.1807 55.1693 10.1889C53.8218 9.19706 52.8387 8.8033 52.6583 7.35635C52.4778 5.91045 52.2001 3.26635 52.2001 3.26635L56.502 3.43677ZM50.7523 12.3764C50.7663 12.1781 51.0335 12.1351 51.9546 12.1492C52.8747 12.164 54.6744 12.2416 54.6957 12.6675C54.7164 13.0923 53.9155 12.9727 53.7819 12.809C53.6483 12.646 52.0036 12.7239 52.0036 12.7239C52.0036 12.7239 52.0414 12.8231 51.6102 12.7952C50.8894 12.7469 50.7383 12.575 50.7523 12.3764ZM15.5402 30.2479C13.6342 30.2479 12.0895 28.6895 12.0895 26.7665C12.0895 24.8436 13.6342 23.2841 15.5402 23.2841C17.4462 23.2841 18.9909 24.8433 18.9909 26.7665C18.9909 28.6898 17.4465 30.2479 15.5402 30.2479ZM28.819 13.8068L9.40402 12.9339L9.4918 11.8556L28.819 12.7518V13.8068ZM28.6553 9.49696C18.4243 8.97372 8.04396 8.43283 8.04396 8.43283C7.35222 8.20067 6.05441 6.81228 6.01245 6.12286C5.97048 5.43343 6.22613 1.5516 8.09957 1.56219C9.0543 1.56713 19.1563 1.82751 29.0072 1.86668L28.6553 9.49696ZM29.4167 1.86809C38.7472 1.90619 47.6828 2.4933 48.1147 2.52612C49.0097 2.59386 48.981 2.98162 48.9939 3.76702C49.0072 4.55312 49.0464 9.60175 48.9939 9.86355C48.9422 10.1257 48.9422 10.4267 48.3973 10.4655C48.1343 10.4845 38.7283 10.0117 29.0649 9.51707L29.4167 1.86809ZM45.2463 12.3411C44.5252 12.2931 44.3745 12.1213 44.3885 11.9227C44.4032 11.7244 44.6703 11.6813 45.5908 11.6961C46.5109 11.7103 48.3106 11.7879 48.3319 12.2137C48.3525 12.6386 47.5517 12.5189 47.4181 12.3559C47.2845 12.1922 45.6398 12.2698 45.6398 12.2698C45.6398 12.2698 45.6775 12.37 45.2463 12.3411ZM61.5792 24.429C61.2267 24.4837 33.6325 23.3557 33.1982 23.2739C32.7631 23.1913 30.9764 21.2236 32.0896 21.2236C33.2031 21.2236 59.1354 22.3463 60.2223 22.8127C61.3082 23.2781 61.9325 24.3737 61.5792 24.429ZM62.7914 7.67883C62.4724 7.69118 61.9685 10.2136 61.9685 10.2136C61.9685 10.2136 61.9685 10.2136 61.7391 10.0209C61.6751 9.61586 61.3621 9.63492 61.3621 9.63492L60.8204 9.11979C60.8204 9.11979 61.93 7.78786 61.5537 7.5564C61.1774 7.32494 60.7056 8.23842 60.7056 8.23842C60.7056 8.23842 60.5392 6.75936 60.2779 5.12894C62.6567 6.3469 63.7608 7.62097 63.7286 7.66542C63.6968 7.71094 63.11 7.66578 62.7914 7.67883ZM65.5832 7.2011C64.5966 6.18919 61.3736 3.94943 61.3736 3.94943C61.4243 3.97519 62.1136 4.14701 62.7854 4.02705C63.6352 4.56688 66.391 6.35184 66.5008 6.66021C65.9063 6.54872 65.4982 7.06385 65.5832 7.2011ZM70.9706 30.2447C69.0646 30.2447 67.5199 28.6856 67.5199 26.7634C67.5199 24.8404 69.0646 23.2809 70.9706 23.2809C72.8766 23.2809 74.4213 24.8401 74.4213 26.7634C74.4213 28.6852 72.8766 30.2447 70.9706 30.2447ZM84.0092 18.2729C83.5101 18.2588 80.2602 17.6438 79.951 17.3774C79.6422 17.1121 77.6646 14.1497 75.7471 12.6086C75.7471 12.6086 81.2506 13.5453 82.456 14.8466C83.6626 16.1474 84.5082 18.287 84.0092 18.2729Z" fill="white"/>
<path d="M15.6241 23.584C13.9531 23.584 12.5938 24.9734 12.5938 26.6811C12.5938 28.3888 13.9531 29.7783 15.6241 29.7783C17.2954 29.7783 18.6554 28.3888 18.6554 26.6811C18.6551 24.9734 17.2954 23.584 15.6241 23.584ZM15.6241 29.4473C14.1339 29.4473 12.9214 28.2064 12.9214 26.6811C12.9214 25.1558 14.1339 23.9146 15.6241 23.9146C17.1146 23.9146 18.3274 25.1555 18.3274 26.6811C18.3274 28.2068 17.1146 29.4473 15.6241 29.4473Z" fill="white"/>
<path d="M70.961 23.666C69.2897 23.666 67.9297 25.0555 67.9297 26.7632C67.9297 28.4708 69.2894 29.8603 70.961 29.8603C72.6327 29.8603 73.9924 28.4708 73.9924 26.7632C73.9924 25.0555 72.6324 23.666 70.961 23.666ZM70.961 29.5293C69.4705 29.5293 68.2577 28.2884 68.2577 26.7632C68.2577 25.88 68.6644 25.0932 69.296 24.5862C69.2579 24.637 69.2436 24.6853 69.2639 24.7143C69.2971 24.7612 69.4093 24.7379 69.5146 24.6624C69.6199 24.5865 69.6783 24.487 69.6451 24.4401C69.6244 24.4108 69.573 24.4091 69.5118 24.4299C69.9311 24.1561 70.4281 23.997 70.961 23.997C72.4515 23.997 73.6644 25.2379 73.6644 26.7635C73.6644 28.2891 72.4515 29.5293 70.961 29.5293Z" fill="white"/>
<path d="M15.608 24.8691C14.6165 24.8691 13.8125 25.6803 13.8125 26.6813C13.8125 27.6815 14.6165 28.4927 15.608 28.4927C16.6005 28.4927 17.4041 27.6815 17.4041 26.6813C17.4041 25.6803 16.6001 24.8691 15.608 24.8691ZM15.608 27.5552C15.153 27.5552 14.7826 27.1816 14.7826 26.7226C14.7826 26.2635 15.1526 25.8899 15.608 25.8899C16.0633 25.8899 16.434 26.2635 16.434 26.7226C16.434 27.1816 16.0633 27.5552 15.608 27.5552Z" fill="white"/>
<path d="M70.8858 24.9648C69.9262 24.9648 69.1484 25.7495 69.1484 26.7166C69.1484 27.6848 69.9262 28.4695 70.8858 28.4695C71.8455 28.4695 72.6232 27.6848 72.6232 26.7166C72.6229 25.7495 71.8455 24.9648 70.8858 24.9648ZM70.8645 27.7892C70.305 27.7892 69.8517 27.3313 69.8517 26.7664C69.8517 26.2026 70.305 25.7446 70.8645 25.7446C71.4241 25.7446 71.8783 26.2026 71.8783 26.7664C71.878 27.3313 71.4241 27.7892 70.8645 27.7892Z" fill="white"/>
<path d="M13.6815 24.988C13.6343 24.9541 13.5346 25.0141 13.4591 25.1217C13.3832 25.2293 13.3601 25.344 13.4073 25.3779C13.4545 25.4117 13.5542 25.3517 13.6297 25.2441C13.7056 25.1362 13.7287 25.0215 13.6815 24.988Z" fill="white"/>
<path d="M14.1614 24.6126C14.2681 24.5361 14.3272 24.4355 14.2936 24.3879C14.26 24.3403 14.1464 24.3639 14.04 24.4405C13.9334 24.517 13.8743 24.6176 13.9078 24.6652C13.9414 24.7128 14.0551 24.6892 14.1614 24.6126Z" fill="white"/>
<path d="M14.9692 24.2676C15.0951 24.2312 15.1842 24.1564 15.1681 24.1003C15.1524 24.0442 15.0374 24.028 14.9118 24.0643C14.7859 24.1007 14.6967 24.1755 14.7128 24.2316C14.7286 24.2877 14.8436 24.3039 14.9692 24.2676Z" fill="white"/>
<path d="M15.7954 24.1649C15.9262 24.1698 16.034 24.1264 16.0361 24.0678C16.0381 24.0096 15.9339 23.9584 15.8031 23.9535C15.6723 23.9486 15.5646 23.992 15.5625 24.0505C15.5604 24.1088 15.6647 24.1599 15.7954 24.1649Z" fill="white"/>
<path d="M16.6481 24.3955C16.7701 24.4428 16.8862 24.4368 16.9069 24.3821C16.9275 24.3274 16.8453 24.2452 16.7229 24.1979C16.6009 24.1506 16.4847 24.1566 16.4641 24.2113C16.4435 24.266 16.5257 24.3482 16.6481 24.3955Z" fill="white"/>
<path d="M17.2603 24.6485C17.2173 24.6876 17.2536 24.7988 17.3414 24.8965C17.4292 24.9946 17.5351 25.0422 17.5778 25.0031C17.6208 24.9639 17.5845 24.8528 17.4967 24.755C17.4092 24.6569 17.3033 24.6093 17.2603 24.6485Z" fill="white"/>
<path d="M18.0084 25.781C18.0623 25.7592 18.0661 25.6424 18.0175 25.5199C17.9689 25.3975 17.8857 25.3156 17.8322 25.3375C17.7783 25.3594 17.7745 25.4762 17.8231 25.5986C17.8717 25.721 17.9549 25.8026 18.0084 25.781Z" fill="white"/>
<path d="M18.1949 26.6806C18.2526 26.6777 18.2946 26.5687 18.2879 26.4368C18.2817 26.3048 18.2295 26.2004 18.1718 26.2032C18.1141 26.206 18.0722 26.315 18.0788 26.447C18.0851 26.5786 18.1372 26.6834 18.1949 26.6806Z" fill="white"/>
<path d="M18.0191 27.574C18.074 27.592 18.1517 27.5052 18.1922 27.3796C18.2328 27.254 18.2212 27.1379 18.1663 27.1195C18.1114 27.1016 18.0338 27.1884 17.9932 27.314C17.9523 27.4396 17.9639 27.556 18.0191 27.574Z" fill="white"/>
<path d="M17.5458 28.3593C17.5919 28.3946 17.6934 28.3385 17.7727 28.2333C17.8521 28.1285 17.8791 28.0146 17.8329 27.9793C17.7867 27.944 17.6853 28.0001 17.6059 28.1053C17.5269 28.21 17.5 28.324 17.5458 28.3593Z" fill="white"/>
<path d="M17.0101 28.7365C16.9129 28.8247 16.8653 28.9316 16.9042 28.975C16.943 29.0184 17.0531 28.982 17.1504 28.8935C17.2476 28.8053 17.2951 28.6984 17.2563 28.655C17.2175 28.6116 17.1073 28.6483 17.0101 28.7365Z" fill="white"/>
<path d="M15.3578 29.182C15.227 29.1771 15.1193 29.2205 15.1172 29.2787C15.1151 29.3369 15.2193 29.3884 15.3501 29.3934C15.4809 29.3983 15.5886 29.3549 15.5907 29.2967C15.5928 29.2385 15.4886 29.187 15.3578 29.182Z" fill="white"/>
<path d="M14.5348 28.965C14.4121 28.9199 14.2963 28.9273 14.2764 28.9823C14.2564 29.0374 14.34 29.1182 14.4628 29.1637C14.5855 29.2089 14.7013 29.2014 14.7212 29.1464C14.7412 29.0914 14.6579 29.0102 14.5348 28.965Z" fill="white"/>
<path d="M13.9559 28.7044C13.9969 28.663 13.9551 28.5539 13.8627 28.4606C13.7702 28.3673 13.662 28.3252 13.6211 28.3666C13.5801 28.4079 13.6218 28.517 13.7143 28.6103C13.8067 28.7036 13.9149 28.7457 13.9559 28.7044Z" fill="white"/>
<path d="M13.1714 27.5712C13.1214 27.6005 13.1336 27.7165 13.199 27.8309C13.2644 27.9452 13.3581 28.0143 13.4081 27.985C13.4581 27.9558 13.4459 27.8397 13.3805 27.7254C13.3151 27.611 13.2214 27.5419 13.1714 27.5712Z" fill="white"/>
<path d="M13.1585 26.9301C13.1389 26.7995 13.077 26.7007 13.0196 26.7095C12.9623 26.7184 12.9318 26.8309 12.9511 26.9615C12.9707 27.092 13.0326 27.1908 13.0899 27.182C13.1473 27.1735 13.178 27.0606 13.1585 26.9301Z" fill="white"/>
<path d="M13.0899 26.2804C13.1465 26.2917 13.2133 26.196 13.2388 26.0665C13.2644 25.9371 13.2392 25.8231 13.1822 25.8115C13.1255 25.8002 13.0587 25.8958 13.0332 26.0253C13.008 26.1548 13.0332 26.2691 13.0899 26.2804Z" fill="white"/>
<path d="M16.2613 29.1162C16.1344 29.1472 16.0424 29.2189 16.056 29.2753C16.0697 29.3321 16.184 29.3526 16.311 29.3215C16.4379 29.2905 16.5299 29.2189 16.5163 29.1624C16.5026 29.1056 16.3886 29.0848 16.2613 29.1162Z" fill="white"/>
<path d="M69.0453 25.0328C68.9988 24.9993 68.9002 25.0586 68.8253 25.1648C68.7505 25.271 68.7274 25.3842 68.7743 25.4177C68.8208 25.4513 68.9194 25.392 68.9943 25.2858C69.0691 25.1796 69.0922 25.0663 69.0453 25.0328Z" fill="white"/>
<path d="M70.31 24.3176C70.4345 24.282 70.5223 24.2079 70.5069 24.1525C70.4911 24.0971 70.3778 24.0808 70.2533 24.1168C70.1288 24.1525 70.041 24.2266 70.0564 24.282C70.0718 24.3374 70.1855 24.3536 70.31 24.3176Z" fill="white"/>
<path d="M71.3854 24.1277C71.3875 24.0701 71.2845 24.0195 71.1554 24.0147C71.0263 24.01 70.9199 24.0528 70.9178 24.1105C70.9158 24.1681 71.0187 24.2187 71.1479 24.2235C71.277 24.2282 71.3834 24.1854 71.3854 24.1277Z" fill="white"/>
<path d="M71.9816 24.4472C72.1022 24.4938 72.2169 24.4878 72.2372 24.4342C72.2575 24.3802 72.1764 24.2987 72.0557 24.2521C71.9351 24.2055 71.8204 24.2115 71.8001 24.2651C71.7794 24.3191 71.8606 24.4006 71.9816 24.4472Z" fill="white"/>
<path d="M72.5725 24.6951C72.5302 24.7339 72.5658 24.8436 72.6526 24.9403C72.7393 25.037 72.8439 25.0842 72.8862 25.0454C72.9285 25.0066 72.8928 24.8969 72.8061 24.8002C72.7197 24.7035 72.6148 24.6566 72.5725 24.6951Z" fill="white"/>
<path d="M73.3186 25.8151C73.3718 25.7936 73.3756 25.6778 73.3274 25.5568C73.2791 25.4358 73.1969 25.355 73.1441 25.3765C73.091 25.398 73.0871 25.5138 73.1354 25.6348C73.1836 25.7558 73.2655 25.8366 73.3186 25.8151Z" fill="white"/>
<path d="M73.5138 26.7062C73.5708 26.7033 73.612 26.5954 73.6058 26.4652C73.5995 26.335 73.5481 26.2316 73.4911 26.2344C73.434 26.2373 73.3928 26.3452 73.3991 26.4754C73.4054 26.6056 73.4568 26.709 73.5138 26.7062Z" fill="white"/>
<path d="M73.323 27.5898C73.3772 27.6078 73.4541 27.5218 73.4943 27.3979C73.5346 27.2741 73.523 27.159 73.4688 27.141C73.4146 27.1231 73.3377 27.2091 73.2974 27.333C73.2572 27.4568 73.2688 27.5719 73.323 27.5898Z" fill="white"/>
<path d="M72.8816 28.3647C72.927 28.3996 73.0274 28.3439 73.1057 28.2401C73.1841 28.1364 73.2107 28.0239 73.1652 27.9889C73.1197 27.954 73.0194 28.0098 72.941 28.1135C72.8627 28.2172 72.8361 28.3294 72.8816 28.3647Z" fill="white"/>
<path d="M72.3446 28.7371C72.2484 28.8242 72.2015 28.9297 72.24 28.9728C72.2785 29.0158 72.3872 28.9798 72.4834 28.8923C72.5796 28.8052 72.6265 28.6997 72.588 28.6566C72.5495 28.6139 72.4404 28.6499 72.3446 28.7371Z" fill="white"/>
<path d="M70.7144 29.1762C70.5854 29.1712 70.4787 29.2139 70.4766 29.2718C70.4745 29.3293 70.5773 29.3801 70.7067 29.385C70.8358 29.39 70.9424 29.3473 70.9445 29.2894C70.9466 29.2316 70.8435 29.1811 70.7144 29.1762Z" fill="white"/>
<path d="M69.9066 28.9647C69.7853 28.9199 69.6709 28.9277 69.6513 28.9816C69.6317 29.036 69.7143 29.1161 69.8356 29.1609C69.957 29.2057 70.0713 29.1979 70.0909 29.1439C70.1105 29.0896 70.028 29.0095 69.9066 28.9647Z" fill="white"/>
<path d="M69.3259 28.7072C69.3664 28.6664 69.3251 28.5587 69.2337 28.4665C69.1423 28.3743 69.0355 28.3326 68.9951 28.3734C68.9547 28.4142 68.9959 28.522 69.0873 28.6142C69.1787 28.7064 69.2855 28.748 69.3259 28.7072Z" fill="white"/>
<path d="M68.5461 27.5809C68.4965 27.6098 68.5087 27.7248 68.5734 27.8377C68.6381 27.9506 68.7304 28.0187 68.7801 27.9901C68.8298 27.9612 68.8175 27.8462 68.7528 27.7333C68.6881 27.6204 68.5958 27.5519 68.5461 27.5809Z" fill="white"/>
<path d="M68.5463 26.949C68.5271 26.8199 68.4655 26.7225 68.4092 26.731C68.3526 26.7394 68.3225 26.8509 68.3417 26.9801C68.361 27.1092 68.4225 27.2066 68.4788 27.1981C68.5351 27.1897 68.5656 27.0782 68.5463 26.949Z" fill="white"/>
<path d="M68.4564 26.3079C68.5124 26.3192 68.5785 26.2247 68.6036 26.0966C68.6288 25.9685 68.604 25.856 68.5477 25.8447C68.4917 25.8334 68.4256 25.9279 68.4005 26.056C68.3753 26.1841 68.4001 26.2966 68.4564 26.3079Z" fill="white"/>
<path d="M71.6026 29.11C71.4771 29.1407 71.3862 29.2112 71.3998 29.2673C71.4134 29.3234 71.526 29.3439 71.6516 29.3129C71.7771 29.2822 71.8681 29.2116 71.8544 29.1555C71.8411 29.0997 71.7282 29.0793 71.6026 29.11Z" fill="white"/>
</svg>
