<svg width="18" height="18" viewBox="0 0 18 18" fill="none" xmlns="http://www.w3.org/2000/svg">
<path fill-rule="evenodd" clip-rule="evenodd" d="M1.875 8.25C1.875 7.83578 2.21079 7.5 2.625 7.5H15.375C15.7892 7.5 16.125 7.83578 16.125 8.25V10.125C16.125 10.5392 15.7892 10.875 15.375 10.875H2.625C2.21079 10.875 1.875 10.5392 1.875 10.125V8.25ZM3.375 9V9.375H14.625V9H3.375Z" fill="#171717"/>
<path fill-rule="evenodd" clip-rule="evenodd" d="M0.75 3C0.75 2.58579 1.08579 2.25 1.5 2.25H16.5C16.9142 2.25 17.25 2.58579 17.25 3V8.25C17.25 8.66423 16.9142 9 16.5 9H1.5C1.08579 9 0.75 8.66423 0.75 8.25V3ZM14.25 5.25H12.75V6.75H14.25V5.25Z" fill="#171717"/>
<path fill-rule="evenodd" clip-rule="evenodd" d="M12 15.75V12.75H13.5V15.75H12Z" fill="#171717"/>
<path fill-rule="evenodd" clip-rule="evenodd" d="M8.25 15.75V12.75H9.75V15.75H8.25Z" fill="#171717"/>
<path fill-rule="evenodd" clip-rule="evenodd" d="M4.5 15.75V12.75H6V15.75H4.5Z" fill="#171717"/>
</svg>
