<svg width="12.000000" height="16.500000" viewBox="0 0 12 16.5" fill="none" xmlns="http://www.w3.org/2000/svg" xmlns:xlink="http://www.w3.org/1999/xlink">
	<desc>
			Created with Pixso.
	</desc>
	<defs/>
	<path id="Vector" d="M6 12.23L10.76 16.32C10.98 16.51 11.29 16.55 11.56 16.42C11.82 16.3 12 16.04 12 15.75L12 2.25C12 1 10.99 0 9.75 0L2.25 0C1 0 0 1 0 2.25L0 15.75C0 16.04 0.17 16.3 0.43 16.42C0.7 16.55 1.01 16.51 1.23 16.32L6 12.23ZM1.5 14.12L1.5 2.25Q1.5 2.09 1.55 1.96Q1.6 1.82 1.71 1.71Q1.82 1.6 1.96 1.55Q2.09 1.5 2.25 1.5L9.75 1.5Q9.9 1.5 10.03 1.55Q10.17 1.6 10.28 1.71Q10.39 1.82 10.44 1.96Q10.5 2.09 10.5 2.25L10.5 14.12L6 10.26L1.5 14.12Z" fill="#FF5E56" fill-opacity="1.000000" fill-rule="evenodd"/>
</svg>
