<svg width="18" height="18" viewBox="0 0 18 18" fill="none" xmlns="http://www.w3.org/2000/svg">
<path fill-rule="evenodd" clip-rule="evenodd" d="M6.75001 0.75C6.41179 0.75 6.11542 0.976365 6.02643 1.30266L3.77644 9.55268C3.71493 9.7782 3.76209 10.0195 3.90397 10.2053C4.04587 10.391 4.26625 10.5 4.50001 10.5H7.36466L6.38521 16.3767C6.32688 16.7267 6.52179 17.0697 6.85232 17.1987C7.18285 17.3277 7.55857 17.2074 7.75275 16.9104L14.1277 7.16044C14.2784 6.92994 14.2907 6.63539 14.1597 6.39316C14.0287 6.15093 13.7754 6 13.5 6H11.6374L13.4394 1.79544C13.5387 1.56372 13.5149 1.29761 13.3761 1.08713C13.2373 0.87666 13.0021 0.75 12.75 0.75H6.75001Z" fill="#171717"/>
</svg>
