<svg width="18" height="18" viewBox="0 0 18 18" fill="none" xmlns="http://www.w3.org/2000/svg">
<path d="M14.7242 2.04527C13.2836 0.604703 10.9476 0.604703 9.507 2.04527L7.87463 3.67764C7.09387 4.45839 7.09387 5.72458 7.87463 6.50533L10.2641 8.89483C11.0449 9.67558 12.3111 9.67558 13.0918 8.89483L14.7242 7.26245C16.1648 5.82189 16.1648 3.48639 14.7242 2.04527Z" fill="#171717"/>
<path d="M12.0614 13.1904C11.5884 12.7168 10.9589 12.4557 10.2896 12.4557C9.62076 12.4557 8.99076 12.7168 8.51769 13.1898L5.98982 15.7177C5.40763 16.2999 4.46038 16.2993 3.8782 15.7183C3.29657 15.1355 3.29657 14.1883 3.8782 13.6061L4.43901 13.0453C4.87157 13.4176 5.51057 13.4384 5.96282 13.0768L9.91494 9.91606C9.78613 9.82269 9.65957 9.7265 9.54482 9.61175L7.15588 7.22225C7.04057 7.10694 6.94551 6.97981 6.85326 6.85156L3.69145 10.8054C3.32976 11.2576 3.35057 11.8966 3.72295 12.3292L3.16157 12.8906C2.18563 13.8671 2.18563 15.4573 3.16213 16.4343C3.65038 16.9226 4.2922 17.1667 4.93345 17.1667C5.57582 17.1667 6.21707 16.9226 6.70532 16.4343L9.23319 13.9064C9.79682 13.3417 10.7806 13.3417 11.3454 13.9064L11.7076 14.2681C11.9056 14.4661 12.2257 14.4656 12.4231 14.2676C12.6206 14.0696 12.6206 13.7489 12.4226 13.5521L12.0614 13.1904ZM7.10357 8.948L7.51982 8.53175C7.71782 8.33375 8.03844 8.33375 8.23588 8.53175C8.43332 8.72975 8.43388 9.05038 8.23588 9.24781L7.81963 9.66406C7.72063 9.76306 7.59126 9.81256 7.46132 9.81256C7.33138 9.81256 7.20201 9.76306 7.10301 9.66406C6.90613 9.46663 6.90613 9.146 7.10357 8.948Z" fill="#171717"/>
</svg>
