<svg width="20.167969" height="16.089844" viewBox="0 0 20.168 16.0898" fill="none" xmlns="http://www.w3.org/2000/svg" xmlns:xlink="http://www.w3.org/1999/xlink">
	<desc>
			Created with Pixso.
	</desc>
	<defs/>
	<path id="Vector" d="M0.91 0C0.41 0 0 0.41 0 0.91L0 12.83C0 13.33 0.41 13.75 0.91 13.75L19.25 13.75C19.75 13.75 20.16 13.33 20.16 12.83L20.16 0.91C20.16 0.41 19.75 0 19.25 0L0.91 0Z" fill="#171717" fill-opacity="1.000000" fill-rule="evenodd"/>
	<path id="Vector" d="M0 0.91C0 0.41 0.41 0 0.91 0L19.25 0C19.75 0 20.16 0.41 20.16 0.91L20.16 12.83C20.16 13.33 19.75 13.75 19.25 13.75L0.91 13.75C0.41 13.75 0 13.33 0 12.83L0 0.91ZM1 1L1 12.75L19.16 12.75L19.16 1L1 1Z" fill="#171717" fill-opacity="1.000000" fill-rule="evenodd"/>
	<path id="Vector" d="M2.9 15.07L4.73 12.32L6.26 13.33L4.43 16.08L2.9 15.07Z" fill="#171717" fill-opacity="1.000000" fill-rule="evenodd"/>
	<path id="Vector" d="M5.43 12.78L4.73 12.32L2.9 15.07L3.6 15.53L3.73 15.62L4.43 16.08L4.98 15.25L5.71 14.17L6.26 13.33L5.57 12.87L5.43 12.78Z" fill="#171717" fill-opacity="1.000000" fill-rule="evenodd"/>
	<path id="Vector" d="M15.73 16.08L13.9 13.33L15.43 12.32L17.26 15.07L15.73 16.08Z" fill="#171717" fill-opacity="1.000000" fill-rule="evenodd"/>
	<path id="Vector" d="M13.9 13.33L14.46 14.17L15.18 15.25L15.73 16.08L16.43 15.62L16.57 15.53L17.26 15.07L16.71 14.24L15.98 13.15L15.43 12.32L14.73 12.78L14.6 12.87L13.9 13.33Z" fill="#171717" fill-opacity="1.000000" fill-rule="evenodd"/>
</svg>
