<svg width="17.875000" height="17.332031" viewBox="0 0 17.875 17.332" fill="none" xmlns="http://www.w3.org/2000/svg" xmlns:xlink="http://www.w3.org/1999/xlink">
	<desc>
			Created with Pixso.
	</desc>
	<defs/>
	<path id="Vector" d="M7.33 1.28L7.33 13.89L5.5 13.89L5.5 1.28L7.33 1.28Z" fill="#171717" fill-opacity="1.000000" fill-rule="evenodd"/>
	<path id="Vector" d="M3.66 9.99C1.64 9.99 0 11.63 0 13.66C0 15.68 1.64 17.32 3.66 17.32C5.69 17.32 7.33 15.68 7.33 13.66C7.33 11.63 5.69 9.99 3.66 9.99ZM10.54 13.66C10.54 11.63 12.18 9.99 14.2 9.99C16.23 9.99 17.87 11.63 17.87 13.66C17.87 15.68 16.23 17.32 14.2 17.32C12.18 17.32 10.54 15.68 10.54 13.66Z" fill="#171717" fill-opacity="1.000000" fill-rule="evenodd"/>
	<path id="Vector" d="M17.87 3.12L17.87 13.89L16.03 13.89L16.03 3.12L17.87 3.12Z" fill="#171717" fill-opacity="1.000000" fill-rule="evenodd"/>
	<path id="Vector" d="M7.1 0.01C6.26 -0.13 5.5 0.52 5.5 1.37L5.5 4.11C5.5 4.78 5.98 5.35 6.64 5.46L16.26 7.14C17.1 7.28 17.87 6.64 17.87 5.78L17.87 3.05C17.87 2.37 17.39 1.8 16.73 1.69L7.1 0.01Z" fill="#171717" fill-opacity="1.000000" fill-rule="evenodd"/>
</svg>
