<svg width="18" height="18" viewBox="0 0 18 18" fill="none" xmlns="http://www.w3.org/2000/svg">
<g clip-path="url(#clip0_1314_10067)">
<path fill-rule="evenodd" clip-rule="evenodd" d="M12.9697 10.7197C13.2625 10.4268 13.7374 10.4268 14.0303 10.7197L17.0303 13.7197C17.3232 14.0125 17.3232 14.4874 17.0303 14.7803L14.7803 17.0303C14.4874 17.3232 14.0125 17.3232 13.7197 17.0303L10.7197 14.0303C10.4268 13.7374 10.4268 13.2625 10.7197 12.9697L12.9697 10.7197ZM12.3106 13.5L14.25 15.4393L15.4393 14.25L13.5 12.3106L12.3106 13.5Z" fill="#171717"/>
<path fill-rule="evenodd" clip-rule="evenodd" d="M3.21967 0.969668C3.51257 0.676777 3.98744 0.676777 4.28033 0.969668L6.90533 3.59467C7.19822 3.88757 7.19822 4.36244 6.90533 4.65533L4.65533 6.90533C4.36244 7.19822 3.88757 7.19822 3.59467 6.90533L0.969668 4.28033C0.676777 3.98744 0.676777 3.51257 0.969668 3.21967L3.21967 0.969668ZM2.56066 3.75L4.125 5.31434L5.31434 4.125L3.75 2.56066L2.56066 3.75Z" fill="#171717"/>
<path fill-rule="evenodd" clip-rule="evenodd" d="M12.5303 7.71967C12.2374 7.42678 11.7625 7.42678 11.4697 7.71967L7.71967 11.4697C7.42678 11.7625 7.42678 12.2374 7.71967 12.5303L9.96967 14.7803C10.2625 15.0732 10.7374 15.0732 11.0303 14.7803L11.7803 14.0303L14.0303 11.7803L14.7803 11.0303C15.0732 10.7374 15.0732 10.2625 14.7803 9.96967L12.5303 7.71967Z" fill="#171717"/>
<path fill-rule="evenodd" clip-rule="evenodd" d="M7.34467 5.09467C7.63755 4.80178 8.11245 4.80178 8.40532 5.09467L10.2803 6.96967C10.5732 7.26256 10.5732 7.73745 10.2803 8.03032L8.03032 10.2803C7.73745 10.5732 7.26256 10.5732 6.96967 10.2803L5.09467 8.40532C4.80178 8.11245 4.80178 7.63755 5.09467 7.34467L7.34467 5.09467ZM6.68566 7.875L7.5 8.68935L8.68935 7.5L7.875 6.68566L6.68566 7.875Z" fill="#171717"/>
<path fill-rule="evenodd" clip-rule="evenodd" d="M7.65532 2.84467C7.36243 2.55178 6.88756 2.55178 6.59467 2.84467L2.84467 6.59467C2.55178 6.88756 2.55178 7.36243 2.84467 7.65532L4.34467 9.15532C4.63757 9.4482 5.11243 9.4482 5.40533 9.15532L9.15532 5.40533C9.4482 5.11243 9.4482 4.63756 9.15532 4.34467L7.65532 2.84467Z" fill="#171717"/>
</g>
<defs>
<clipPath id="clip0_1314_10067">
<rect width="18" height="18" fill="white"/>
</clipPath>
</defs>
</svg>
