<svg width="10" height="10" viewBox="0 0 10 10" fill="none" xmlns="http://www.w3.org/2000/svg">
<path fill-rule="evenodd" clip-rule="evenodd" d="M5.34029 0.599085C5.26262 0.485727 5.134 0.417969 4.99658 0.417969C4.85916 0.417969 4.73058 0.485727 4.65291 0.599085L3.2672 2.62099L0.916043 3.31407C0.784231 3.35292 0.680052 3.45428 0.637585 3.58497C0.595118 3.71567 0.619827 3.8589 0.703631 3.96782L2.19837 5.91051L2.13098 8.36076C2.1272 8.49813 2.1914 8.62851 2.30258 8.7093C2.41376 8.79005 2.55761 8.81084 2.68709 8.7648L4.99658 7.94351L7.30608 8.7648C7.43558 8.81084 7.57941 8.79005 7.69062 8.7093C7.80179 8.62851 7.866 8.49813 7.86221 8.36076L7.79483 5.91051L9.28954 3.96782C9.37337 3.8589 9.39808 3.71567 9.35562 3.58497C9.31312 3.45428 9.20896 3.35292 9.07712 3.31407L6.726 2.62099L5.34029 0.599085Z" fill="#FFB056"/>
</svg>
