<svg width="28" height="18" viewBox="0 0 28 18" fill="none" xmlns="http://www.w3.org/2000/svg">
<path fill-rule="evenodd" clip-rule="evenodd" d="M19 0.75C17.5503 0.75 16.375 1.92525 16.375 3.375C16.375 4.82475 17.5503 6 19 6C20.4497 6 21.625 4.82475 21.625 3.375C21.625 1.92525 20.4497 0.75 19 0.75Z" fill="#171717"/>
<path fill-rule="evenodd" clip-rule="evenodd" d="M18.0509 6C16.9312 6 15.9819 6.82334 15.8236 7.93177L15.2575 11.8939C15.2268 12.1092 15.291 12.3271 15.4334 12.4914C15.5759 12.6556 15.7826 12.75 16 12.75H16.9567L17.5076 16.606C17.5603 16.9756 17.8768 17.25 18.25 17.25H19.75C20.1233 17.25 20.4397 16.9756 20.4925 16.606L21.0433 12.75H22C22.2174 12.75 22.4241 12.6556 22.5666 12.4914C22.709 12.3271 22.7732 12.1092 22.7425 11.8939L22.1765 7.93177C22.0181 6.82334 21.0688 6 19.949 6H18.0509Z" fill="#171717"/>
<path fill-rule="evenodd" clip-rule="evenodd" d="M9 0.75C7.55025 0.75 6.375 1.92525 6.375 3.375C6.375 4.82475 7.55025 6 9 6C10.4497 6 11.625 4.82475 11.625 3.375C11.625 1.92525 10.4497 0.75 9 0.75Z" fill="#171717"/>
<path fill-rule="evenodd" clip-rule="evenodd" d="M12 12C12 12.4142 11.6642 12.75 11.25 12.75V16.5C11.25 16.9142 10.9142 17.25 10.5 17.25H7.5C7.08579 17.25 6.75 16.9142 6.75 16.5V12.75C6.33579 12.75 6 12.4142 6 12V8.25C6 7.00736 7.00736 6 8.25 6H9.75C10.9927 6 12 7.00736 12 8.25V12Z" fill="#171717"/>
</svg>
