<svg width="22.000000" height="22.000000" viewBox="0 0 22 22" fill="none" xmlns="http://www.w3.org/2000/svg" xmlns:xlink="http://www.w3.org/1999/xlink">
	<desc>
			Created with Pixso.
	</desc>
	<defs>
		<clipPath id="clip9_8063">
			<rect id="wifi_18074572" rx="0.000000" width="21.000000" height="21.000000" transform="translate(0.500000 0.500000)" fill="white" fill-opacity="0"/>
		</clipPath>
	</defs>
	<rect id="wifi_18074572" rx="0.000000" width="21.000000" height="21.000000" transform="translate(0.500000 0.500000)" fill="#FFFFFF" fill-opacity="0"/>
	<g clip-path="url(#clip9_8063)">
		<path id="Vector" d="M2.74 7.79C2.23 7.79 1.82 8.2 1.82 8.71L1.82 12.47C1.82 12.98 2.23 13.39 2.74 13.39C5.98 13.39 8.6 16.01 8.6 19.25C8.6 19.75 9.01 20.16 9.51 20.16L13.28 20.16C13.79 20.16 14.2 19.75 14.2 19.25C14.2 16.4 12.67 13.55 10.56 11.43C8.44 9.31 5.58 7.79 2.74 7.79Z" fill="#171717" fill-opacity="1.000000" fill-rule="evenodd"/>
		<path id="Vector" d="M2.74 0.91C2.23 0.91 1.82 1.32 1.82 1.83L1.82 5.46C1.82 5.96 2.23 6.37 2.74 6.37C6.01 6.37 9.23 7.91 11.65 10.33C14.07 12.75 15.61 15.98 15.61 19.25C15.61 19.75 16.02 20.16 16.53 20.16L20.16 20.16C20.66 20.16 21.07 19.75 21.07 19.25C21.07 9.12 12.87 0.91 2.74 0.91Z" fill="#171717" fill-opacity="1.000000" fill-rule="evenodd"/>
		<path id="Vector" d="M4.12 14.66C2.35 14.66 0.91 16.1 0.91 17.87C0.91 19.64 2.35 21.08 4.12 21.08C5.89 21.08 7.33 19.64 7.33 17.87C7.33 16.1 5.89 14.66 4.12 14.66Z" fill="#171717" fill-opacity="1.000000" fill-rule="evenodd"/>
	</g>
</svg>
