<svg width="30.000000" height="30.000000" viewBox="0 0 30 30" fill="none" xmlns="http://www.w3.org/2000/svg" xmlns:xlink="http://www.w3.org/1999/xlink">
	<desc>
			Created with Pixso.
	</desc>
	<defs>
		<clipPath id="clip2_25785">
			<rect id="tg icon" rx="0.000000" width="29.000000" height="29.000000" transform="translate(0.500000 0.500000)" fill="white" fill-opacity="0"/>
		</clipPath>
	</defs>
	<rect id="tg icon" rx="0.000000" width="29.000000" height="29.000000" transform="translate(0.500000 0.500000)" fill="#FFFFFF" fill-opacity="0"/>
	<g clip-path="url(#clip2_25785)">
		<path id="Vector" d="M15 2.5C8.1 2.5 2.5 8.09 2.5 15C2.5 21.9 8.1 27.5 15 27.5C21.89 27.5 27.5 21.9 27.5 15C27.5 8.09 21.89 2.5 15 2.5ZM20.79 11C20.6 12.97 19.79 17.77 19.39 19.98C19.21 20.92 18.85 21.23 18.53 21.27C17.81 21.33 17.26 20.8 16.56 20.33C15.46 19.61 14.83 19.16 13.77 18.46C12.53 17.65 13.33 17.19 14.04 16.47C14.23 16.28 17.43 13.37 17.5 13.11C17.5 13.07 17.5 13.03 17.5 12.99C17.48 12.95 17.46 12.91 17.43 12.88C17.35 12.82 17.26 12.84 17.17 12.86C17.06 12.88 15.31 14.05 11.89 16.34C11.39 16.68 10.95 16.86 10.54 16.84C10.1 16.83 9.25 16.59 8.6 16.38C7.82 16.13 7.21 16 7.26 15.56C7.28 15.33 7.6 15.11 8.18 14.87C11.83 13.28 14.26 12.23 15.47 11.73C18.95 10.28 19.66 10.03 20.14 10.03C20.23 10.03 20.47 10.06 20.62 10.18C20.75 10.28 20.78 10.42 20.79 10.52C20.78 10.59 20.81 10.82 20.79 11Z" fill="#DCDCDC" fill-opacity="1.000000" fill-rule="nonzero"/>
	</g>
</svg>
