<svg width="22.500000" height="22.500000" viewBox="0 0 22.5 22.5" fill="none" xmlns="http://www.w3.org/2000/svg" xmlns:xlink="http://www.w3.org/1999/xlink">
	<desc>
			Created with Pixso.
	</desc>
	<defs/>
	<path id="Vector" d="M1.57 1.57C0 3.16 0 5.7 0 10.8L0 11.69C0 16.78 0 19.32 1.57 20.92C3.16 22.5 5.71 22.5 10.79 22.5L11.7 22.5C16.78 22.5 19.32 22.5 20.92 20.92C22.5 19.33 22.5 16.79 22.5 11.69L22.5 10.8C22.5 5.71 22.5 3.17 20.92 1.57C19.33 0 16.78 0 11.7 0L10.79 0C5.71 0 3.17 0 1.57 1.57ZM3.79 6.84L6.37 6.84C6.46 11.13 8.34 12.95 9.84 13.32L9.84 6.84L12.27 6.84L12.27 10.54C13.75 10.38 15.3 8.69 15.83 6.83L18.25 6.83C18.04 7.8 17.65 8.71 17.09 9.51C16.52 10.32 15.8 11 14.96 11.51C15.89 11.97 16.72 12.63 17.39 13.44C18.05 14.25 18.53 15.19 18.81 16.2L16.14 16.2C15.57 14.42 14.15 13.05 12.27 12.86L12.27 16.2L11.96 16.2C6.84 16.2 3.91 12.69 3.79 6.84Z" fill="#DCDCDC" fill-opacity="1.000000" fill-rule="nonzero"/>
</svg>
